<?xml version="1.0" encoding="utf-8"?>
<!-- Generator: Adobe Illustrator 26.2.1, SVG Export Plug-In . SVG Version: 6.00 Build 0)  -->
<svg version="1.1" id="Calque_1" xmlns="http://www.w3.org/2000/svg" xmlns:xlink="http://www.w3.org/1999/xlink" x="0px" y="0px"
	 viewBox="0 0 760 320" style="enable-background:new 0 0 760 320;" xml:space="preserve">
<style type="text/css">
	.st0{fill:#1D1D1B;}
</style>
<g>
	<g id="dff727ea-c914-4c1d-9325-86d683f65698">
		<path d="M257.65,158.35L257.65,158.35L257.65,158.35c-0.52-1.37-0.78-3.25-0.78-5.66l0,0l0,0c0-2.41,0.85-9.57,2.47-21.42l0,0l0,0
			c1.63-11.85,2.47-21.35,2.47-28.51l0,0l0,0c0-1.69-0.13-3.97-0.39-6.9l0,0l0,0c4.23,0.26,6.9,1.24,8.01,2.99l0,0l0,0
			c0.59,1.04,0.91,2.02,1.11,2.93l0,0l0,0c0.13,0.91,0.26,2.41,0.26,4.36l0,0l0,0c0,1.95-0.91,9.44-2.73,22.46l0,0l0,0
			c-1.82,13.02-2.8,22.26-2.8,27.8l0,0l0,0c0.26-0.07,0.78-0.13,1.5-0.13l0,0l0,0c12.17,0,21.22-0.85,27.14-2.54l0,0l0,0
			c-0.39,3.25-1.5,5.79-3.32,7.55l0,0l0,0c-1.82,1.82-4.1,2.73-6.83,2.73l0,0l0,0c-0.78,0-3.25-0.2-7.29-0.52l0,0l0,0
			c-4.1-0.39-8.07-0.52-11.85-0.52l0,0l0,0c-3.84,0-7.62,0.39-11.46,1.11l0,0l0,0C253.88,161.54,255.38,159.65,257.65,158.35z
			 M313.05,130.42L313.05,130.42L313.05,130.42c-1.63,2.8-2.86,5.66-3.71,8.66l0,0l0,0c-0.91,2.93-1.3,5.73-1.3,8.46l0,0l0,0
			c0,2.67,0.59,4.95,1.82,6.83l0,0l0,0c1.17,1.89,2.93,2.8,5.14,2.8l0,0l0,0c3.19,0,6.12-1.69,8.85-5.14l0,0l0,0
			c2.8-3.52,4.88-7.68,6.38-12.56l0,0l0,0c1.5-4.95,2.21-9.5,2.21-13.67l0,0l0,0c0-4.17-0.13-7.62-0.46-10.28l0,0l0,0
			c1.3-0.13,2.15-0.2,2.54-0.2l0,0l0,0c4.75,0,7.16,2.47,7.16,7.36l0,0l0,0c0,1.04-0.65,5.4-2.02,13.02l0,0l0,0
			c-1.3,7.62-1.95,13.73-1.95,18.29l0,0l0,0c0,4.56,0.85,8.59,2.6,12.17l0,0l0,0c-3.52-0.72-6.12-2.28-7.68-4.69l0,0l0,0
			c-1.63-2.34-2.41-5.79-2.41-10.28l0,0l0,0c0-0.78,0.13-2.34,0.39-4.56l0,0l0,0c-1.5,5.34-4.17,9.63-8.01,12.89l0,0l0,0
			c-3.84,3.32-7.62,4.95-11.26,4.95l0,0l0,0c-3.71,0-6.64-1.43-8.92-4.23l0,0l0,0c-2.21-2.8-3.38-6.57-3.38-11.46l0,0l0,0
			c0-4.95,0.91-9.76,2.8-14.45l0,0l0,0c1.82-4.69,4.56-8.72,8.27-12.17l0,0l0,0c3.65-3.45,7.75-5.14,12.3-5.14l0,0l0,0
			c1.95,0,4.1,0.39,6.51,1.17l0,0l0,0c-3.32,0.85-6.38,2.41-9.11,4.62l0,0l0,0C316.89,125.02,314.68,127.56,313.05,130.42z
			 M397.8,104.84L397.8,104.84l0.07,1.04l0,0c0,2.15-0.78,9.11-2.41,20.96l0,0l0,0c-1.63,11.78-2.41,21.61-2.41,29.55l0,0l0,0
			c0,3.52,0.2,6.25,0.52,8.27l0,0l0,0c-1.37,0.13-2.08,0.2-2.21,0.2l0,0l0,0c-2.54,0-4.43-0.59-5.66-1.76l0,0l0,0
			c-1.17-1.17-1.76-3.06-1.76-5.66l0,0l0,0c0-2.6,0.91-10.61,2.8-23.95l0,0l0,0c1.82-13.34,2.8-22.85,2.8-28.51l0,0l0,0
			c0-5.66-0.39-9.44-1.17-11.2l0,0l0,0c1.82,0.26,3.45,0.91,5.01,2.08l0,0l0,0c1.56,1.11,2.73,2.67,3.52,4.56l0,0l0,0
			c4.3-2.28,9.05-3.45,14.32-3.45l0,0l0,0c5.21,0,9.31,1.63,12.3,4.82l0,0l0,0c2.99,3.25,4.49,7.23,4.49,11.91l0,0l0,0
			c0,5.99-2.21,11.46-6.57,16.21l0,0l0,0c-4.36,4.75-10.28,7.16-17.71,7.16l0,0l0,0c-1.69,0-3.25-0.13-4.62-0.33l0,0l-0.26-2.73l0,0
			c3.78,0,7.03-0.59,9.89-1.69l0,0l0,0c2.8-1.11,4.95-2.6,6.38-4.43l0,0l0,0c2.86-3.58,4.3-7.81,4.3-12.63l0,0l0,0
			c0-3.52-1.11-6.38-3.32-8.72l0,0l0,0c-2.21-2.34-5.4-3.52-9.63-3.52l0,0l0,0C403.92,103.15,401.06,103.73,397.8,104.84z
			 M446.62,130.42L446.62,130.42L446.62,130.42c-1.63,2.8-2.93,5.66-3.78,8.66l0,0l0,0c-0.85,2.93-1.24,5.73-1.24,8.46l0,0l0,0
			c0,2.67,0.59,4.95,1.82,6.83l0,0l0,0c1.17,1.89,2.93,2.8,5.14,2.8l0,0l0,0c3.12,0,6.05-1.69,8.85-5.14l0,0l0,0
			c2.73-3.52,4.82-7.68,6.31-12.56l0,0l0,0c1.5-4.95,2.28-9.5,2.28-13.67l0,0l0,0c0-4.17-0.2-7.62-0.52-10.28l0,0l0,0
			c1.37-0.13,2.21-0.2,2.54-0.2l0,0l0,0c4.75,0,7.16,2.47,7.16,7.36l0,0l0,0c0,1.04-0.65,5.4-1.95,13.02l0,0l0,0
			c-1.37,7.62-2.02,13.73-2.02,18.29l0,0l0,0c0,4.56,0.85,8.59,2.6,12.17l0,0l0,0c-3.52-0.72-6.12-2.28-7.68-4.69l0,0l0,0
			c-1.63-2.34-2.41-5.79-2.41-10.28l0,0l0,0c0-0.78,0.13-2.34,0.39-4.56l0,0l0,0c-1.5,5.34-4.17,9.63-8.01,12.89l0,0l0,0
			c-3.84,3.32-7.55,4.95-11.26,4.95l0,0l0,0c-3.71,0-6.64-1.43-8.92-4.23l0,0l0,0c-2.21-2.8-3.38-6.57-3.38-11.46l0,0l0,0
			c0-4.95,0.91-9.76,2.8-14.45l0,0l0,0c1.82-4.69,4.56-8.72,8.27-12.17l0,0l0,0c3.71-3.45,7.81-5.14,12.3-5.14l0,0l0,0
			c1.95,0,4.1,0.39,6.51,1.17l0,0l0,0c-3.32,0.85-6.38,2.41-9.11,4.62l0,0l0,0C450.46,125.02,448.25,127.56,446.62,130.42z
			 M527.21,126.78L527.21,126.78L527.21,126.78c0,2.54-0.52,7.1-1.63,13.67l0,0l0,0c-1.11,6.51-1.63,11.33-1.63,14.32l0,0l0,0
			c0,2.99,0.39,5.14,1.11,6.44l0,0l0,0c0.72,1.3,1.95,2.47,3.71,3.38l0,0l0,0c-0.78,0.07-1.82,0.13-3.12,0.13l0,0l0,0
			c-3.84,0-6.51-0.72-8.14-2.15l0,0l0,0c-1.63-1.43-2.41-4.04-2.41-7.68l0,0l0,0c0-2.08,0.59-6.25,1.69-12.56l0,0l0,0
			c1.11-6.31,1.69-11,1.69-13.93l0,0l0,0c0-3.71-1.11-5.53-3.38-5.53l0,0l0,0c-3.58,0-7.36,3.19-11.2,9.5l0,0l0,0
			c-3.84,6.31-5.79,14-5.79,22.91l0,0l0,0c0,3.52,0.2,6.25,0.52,8.27l0,0l0,0c-1.5,0.13-2.34,0.2-2.67,0.2l0,0l0,0
			c-4.95,0-7.42-2.41-7.42-7.29l0,0l0,0c0-1.11,0.59-5.4,1.82-12.95l0,0l0,0c1.17-7.55,1.76-13.54,1.76-17.97l0,0l0,0
			c0-4.49-0.46-8.59-1.43-12.3l0,0l0,0c3.32,1.3,5.66,3.12,6.97,5.47l0,0l0,0c1.3,2.41,1.95,5.14,1.95,8.2l0,0l0,0
			c0,3.06-0.33,6.57-1.04,10.68l0,0l0,0c1.82-6.31,4.75-11.65,8.72-16.01l0,0l0,0c3.91-4.36,7.62-6.57,11.07-6.57l0,0l0,0
			C524.28,114.8,527.21,118.77,527.21,126.78z M567.57,117.27L567.57,117.27L567.57,117.27c0,2.34-0.46,3.97-1.3,4.88l0,0l0,0
			c-0.91,0.91-2.21,1.3-3.97,1.3l0,0h-6.05l0,0c-0.26,1.5-0.85,4.95-1.76,10.48l0,0l0,0c-1.95,10.42-2.86,18.29-2.86,23.63l0,0l0,0
			c0,5.34,0.39,8.85,1.17,10.68l0,0l0,0c-3.19-1.17-5.47-2.99-6.83-5.34l0,0l0,0c-1.3-2.41-1.95-5.34-1.95-8.72l0,0l0,0
			c0-3.45,0.2-6.7,0.59-9.76l0,0l0,0c0.46-3.06,1.04-6.64,1.82-10.68l0,0l0,0c0.78-4.1,1.37-7.42,1.69-9.89l0,0l0,0
			c-3.19,0.46-6.38,1.37-9.44,2.73l0,0l0,0c-0.07-0.91-0.13-1.76-0.13-2.47l0,0l0,0c0-2.67,0.91-4.49,2.67-5.4l0,0l0,0
			c1.82-0.91,4.36-1.37,7.75-1.37l0,0l0,0c0.39-4.17,0.59-7.29,0.59-9.31l0,0l0,0c0-2.02,0-3.71-0.07-4.95l0,0l0,0
			c0-1.24,0-2.15,0-2.8l0,0l0,0c2.54,0.39,4.56,1.56,5.92,3.45l0,0l0,0c1.43,1.82,2.08,4.43,2.08,7.68l0,0l0,0
			c0,1.69-0.13,3.71-0.39,6.12l0,0l0,0c4.88,0,8.33-0.85,10.35-2.47l0,0l0,0C567.5,115.84,567.57,116.56,567.57,117.27z
			 M583.39,137.32L583.39,137.32c1.82-6.31,4.69-11.65,8.53-16.01l0,0l0,0c3.84-4.36,7.49-6.57,10.81-6.57l0,0l0,0
			c3.38,0,5.73,1.04,7.16,3.06l0,0l0,0c1.43,2.02,2.08,4.82,2.08,8.33l0,0l0,0c0,3.52-0.52,8.4-1.63,14.71l0,0l0,0
			c-1.11,6.38-1.63,11-1.63,13.87l0,0l0,0c0,2.86,0.39,5.01,1.11,6.31l0,0l0,0c0.72,1.3,1.95,2.47,3.65,3.38l0,0l0,0
			c-0.72,0.07-1.76,0.13-3.06,0.13l0,0l0,0c-3.58,0-6.25-0.72-8.01-2.21l0,0l0,0c-1.69-1.5-2.54-4.04-2.54-7.62l0,0l0,0
			c0-2.08,0.59-6.25,1.69-12.56l0,0l0,0c1.11-6.31,1.69-11,1.69-13.93l0,0l0,0c0-3.71-1.3-5.53-3.91-5.53l0,0l0,0
			c-1.5,0-3.19,0.78-5.08,2.41l0,0l0,0c-1.82,1.56-3.65,3.71-5.34,6.44l0,0l0,0c-1.69,2.73-3.12,6.18-4.3,10.42l0,0l0,0
			c-1.17,4.17-1.76,8.27-1.76,12.3l0,0l0,0c0,4.1,0.2,7.1,0.52,9.11l0,0l0,0c-1.37,0.13-2.15,0.2-2.28,0.2l0,0l0,0
			c-2.67,0-4.62-0.59-5.86-1.69l0,0l0,0c-1.3-1.11-1.95-2.86-1.95-5.27l0,0l0,0c0-2.34,0.52-6.97,1.5-13.8l0,0l0,0
			c2.99-20.9,4.43-36.78,4.43-47.58l0,0l0,0c0-4.88-0.33-8.2-0.98-9.89l0,0l0,0c3.25,1.17,5.53,2.93,6.83,5.21l0,0l0,0
			c1.3,2.34,1.95,5.47,1.95,9.5l0,0l0,0c0,2.8-0.59,8.72-1.69,17.71l0,0l0,0C584.49,126.78,583.78,133.29,583.39,137.32
			L583.39,137.32z M647.05,119.16L647.05,119.16L647.05,119.16c-3.38,0-6.18,1.95-8.53,5.79l0,0l0,0
			c-2.34,3.91-3.91,8.46-4.69,13.67l0,0h2.34l0,0c2.99,0,5.53-0.39,7.75-1.24l0,0l0,0c2.15-0.85,3.84-1.95,5.08-3.25l0,0l0,0
			c2.21-2.6,3.38-5.53,3.38-8.79l0,0l0,0c0-1.82-0.46-3.32-1.3-4.43l0,0l0,0C650.17,119.75,648.81,119.16,647.05,119.16z
			 M658.9,153.27L658.9,153.27c-2.54,4.23-5.4,7.16-8.46,8.85l0,0l0,0c-3.06,1.69-6.7,2.54-10.74,2.54l0,0l0,0
			c-4.04,0-7.62-1.82-10.68-5.4l0,0l0,0c-3.06-3.58-4.56-8.59-4.56-15.17l0,0l0,0c0-7.42,2.02-14.06,5.99-19.85l0,0l0,0
			c1.95-2.8,4.56-5.08,7.68-6.83l0,0l0,0c3.19-1.69,6.64-2.6,10.48-2.6l0,0l0,0c8.4,0,12.63,4.1,12.63,12.24l0,0l0,0
			c0,4.88-1.89,8.72-5.66,11.46l0,0l0,0c-3.84,2.8-8.2,4.17-13.15,4.17l0,0l0,0c-3.32,0-6.31-0.33-8.98-0.91l0,0l0,0
			c-0.07,0.59-0.07,1.43-0.07,2.6l0,0l0,0c0,9.96,2.93,14.91,8.85,14.91l0,0l0,0c5.53,0,10.02-2.73,13.54-8.27l0,0l0,0
			C657.85,151.25,658.9,152.03,658.9,153.27L658.9,153.27z M657.2,108.49L657.2,108.49L657.2,108.49c-0.07,0.59-0.33,1.17-0.91,1.76
			l0,0l0,0c-0.52,0.52-1.11,0.85-1.82,1.04l0,0l0,0c-2.02-2.54-4.62-5.01-7.75-7.49l0,0l0,0c-3.19-2.47-6.38-4.23-9.7-5.21l0,0l0,0
			c0.13-2.93,1.5-5.21,4.1-6.9l0,0l0,0c2.99,1.17,6.05,3.52,9.18,6.97l0,0l0,0C653.56,102.04,655.84,105.36,657.2,108.49z
			 M682.07,136.02L682.07,136.02c2.02-7.29,4.43-12.69,7.29-16.14l0,0l0,0c2.86-3.45,5.47-5.14,7.94-5.14l0,0l0,0
			c2.47,0,4.3,0.91,5.47,2.73l0,0l0,0c1.24,1.82,1.89,4.17,1.89,6.97l0,0l0,0c0,2.8-0.72,5.21-2.15,7.29l0,0l0,0
			c-1.5,2.02-3.65,3.06-6.44,3.06l0,0l0,0c-0.91,0-1.56-0.07-2.08-0.2l0,0l0,0c1.95-2.8,2.86-5.6,2.86-8.4l0,0l0,0
			c0-2.02-0.85-2.99-2.47-2.99l0,0l0,0c-1.3,0-2.67,0.72-4.1,2.21l0,0l0,0c-1.5,1.5-2.86,3.65-4.23,6.31l0,0l0,0
			c-1.37,2.73-2.47,6.25-3.38,10.55l0,0l0,0c-0.91,4.36-1.37,8.98-1.37,14l0,0l0,0c0,0.59,0.13,2.93,0.39,7.16l0,0l0,0
			c-1.43,0.13-2.28,0.2-2.54,0.2l0,0l0,0c-4.95,0-7.42-2.41-7.42-7.29l0,0l0,0c0-1.11,0.59-5.4,1.82-12.95l0,0l0,0
			c1.17-7.55,1.76-13.54,1.76-17.97l0,0l0,0c0-4.49-0.46-8.59-1.43-12.3l0,0l0,0c3.32,1.3,5.66,3.12,6.97,5.47l0,0l0,0
			c1.3,2.41,1.95,5.21,1.95,8.33l0,0l0,0C682.85,130.03,682.59,133.09,682.07,136.02L682.07,136.02z M731.67,119.16L731.67,119.16
			L731.67,119.16c-3.38,0-6.25,1.95-8.59,5.79l0,0l0,0c-2.34,3.91-3.84,8.46-4.62,13.67l0,0h2.34l0,0c2.99,0,5.53-0.39,7.75-1.24
			l0,0l0,0c2.15-0.85,3.84-1.95,5.08-3.25l0,0l0,0c2.21-2.6,3.38-5.53,3.38-8.79l0,0l0,0c0-1.82-0.46-3.32-1.3-4.43l0,0l0,0
			C734.8,119.75,733.49,119.16,731.67,119.16z M743.52,153.27L743.52,153.27c-2.54,4.23-5.4,7.16-8.46,8.85l0,0l0,0
			c-3.06,1.69-6.7,2.54-10.74,2.54l0,0l0,0c-4.04,0-7.62-1.82-10.68-5.4l0,0l0,0c-3.06-3.58-4.56-8.59-4.56-15.17l0,0l0,0
			c0-7.42,2.02-14.06,5.99-19.85l0,0l0,0c1.95-2.8,4.56-5.08,7.68-6.83l0,0l0,0c3.19-1.69,6.64-2.6,10.48-2.6l0,0l0,0
			c8.4,0,12.63,4.1,12.63,12.24l0,0l0,0c0,4.88-1.89,8.72-5.66,11.46l0,0l0,0c-3.84,2.8-8.2,4.17-13.15,4.17l0,0l0,0
			c-3.32,0-6.31-0.33-8.98-0.91l0,0l0,0c-0.07,0.59-0.07,1.43-0.07,2.6l0,0l0,0c0,9.96,2.93,14.91,8.85,14.91l0,0l0,0
			c5.53,0,10.02-2.73,13.54-8.27l0,0l0,0C742.48,151.25,743.52,152.03,743.52,153.27L743.52,153.27z"/>
	</g>
	
		<g id="dfe8044c-91b6-4966-9038-a63642c35301" transform="matrix(0.6414999074478166,0,0,0.6414999074478166,37.325639709553826,117.89613952995941)">
		<path class="st0" d="M96.36,52.45v-0.26c-2.54-4.49-6.77-7.75-11.72-9.05h-0.46c-2.73-0.85-5.47-1.37-8.33-1.56
			c-7.62-1.04-14.91-3.71-21.42-7.94c-1.17-0.72-2.73-0.33-3.45,0.85c-0.65,1.11-0.39,2.47,0.65,3.25c2.15,1.37,4.36,2.6,6.64,3.71
			c0,0.33-0.33,0.65-0.39,1.04c-3.06,10.68,3.12,21.87,13.8,25c1.95,0.52,3.91,0.85,5.92,0.85c6.12,0,11.85-2.8,15.62-7.55
			c0.26,3.32,0.07,6.7-0.59,9.96c-0.52,1.3,0.07,2.73,1.37,3.25c0.07,0,0.13,0.07,0.2,0.07c0.26,0.07,0.52,0.07,0.78,0
			c1.04,0,2.02-0.65,2.34-1.69c1.04-4.49,1.3-9.11,0.78-13.6C97.99,56.55,97.4,54.4,96.36,52.45z M81.52,47.5
			c0.13,0.59,0.13,1.17,0,1.76c-0.65,2.34-3.06,3.71-5.4,2.99c-2.34-0.72-3.71-3.06-2.99-5.4c0.07-0.2,0.2-0.39,0.33-0.59l2.02,0.26
			c2.08,0.13,4.17,0.46,6.18,0.98H81.52z M84.64,61.63c-3.58,1.82-7.75,2.21-11.59,1.04c-8.07-2.34-12.76-10.74-10.42-18.88V43.4
			c1.82,0.72,3.71,1.3,5.66,1.82v0.2c-1.56,4.88,1.17,10.15,6.05,11.72c4.88,1.56,10.15-1.17,11.72-6.05
			c0.2-0.59,0.33-1.17,0.39-1.76c2.02,1.04,3.71,2.54,4.95,4.36c-1.17,3.38-3.52,6.18-6.64,7.88h-0.13V61.63z M174.8,42.49
			c0-0.39-0.26-0.65-0.39-1.04c2.28-1.11,4.49-2.34,6.64-3.71c1.11-0.85,1.3-2.41,0.46-3.52c-0.78-1.04-2.15-1.3-3.25-0.65
			c-6.44,4.17-13.73,6.9-21.42,7.94c-2.86,0.2-5.66,0.72-8.4,1.56h-0.39c-5.01,1.3-9.24,4.62-11.78,9.11v0.2
			c-1.04,2.02-1.63,4.23-1.82,6.51c-0.59,4.56-0.33,9.18,0.78,13.6c0.33,1.04,1.3,1.69,2.34,1.69c1.37,0,2.54-1.04,2.54-2.47
			c0-0.33-0.07-0.59-0.13-0.85c-0.72-3.25-0.91-6.64-0.65-9.96c3.71,4.82,9.5,7.62,15.62,7.55c2.02,0,3.97-0.26,5.92-0.85
			c10.74-3.06,16.99-14.26,13.93-25.06C174.8,42.56,174.8,42.56,174.8,42.49z M157.16,46.53l2.02-0.26c0.13,0.2,0.2,0.39,0.33,0.59
			c0.65,2.28-0.65,4.69-2.93,5.34c-2.21,0.72-4.62-0.59-5.27-2.8c-0.2-0.59-0.26-1.24-0.13-1.89
			C153.06,47.05,155.14,46.72,157.16,46.53L157.16,46.53z M159.57,62.74c-3.84,1.17-8.01,0.78-11.59-1.04
			c-3.12-1.69-5.53-4.56-6.64-7.94c1.24-1.82,2.93-3.38,4.95-4.36c0.07,0.39,0.13,0.85,0.26,1.24c1.17,3.97,4.82,6.64,8.92,6.64
			c5.14-0.13,9.24-4.36,9.11-9.5c0-0.72-0.13-1.43-0.33-2.15v-0.2c1.89-0.52,3.78-1.11,5.66-1.82v0.39
			C172.2,52,167.58,60.33,159.57,62.74z"/>
		<path class="st0" d="M104.11,48.55c-0.52-7.49-6.64-12.24-17.12-13.02c-5.53-0.72-10.87-2.67-15.56-5.6
			c-1.17-0.78-2.67-0.46-3.45,0.72c-0.78,1.17-0.46,2.67,0.72,3.45c5.4,3.45,11.59,5.66,17.97,6.44c4.49,0.33,12.04,1.89,12.56,8.4
			c0.07,1.3,1.17,2.34,2.47,2.34h0.2C103.2,51.08,104.24,49.91,104.11,48.55z M147.33,40.47c6.38-0.78,12.5-2.93,17.97-6.44
			c1.17-0.78,1.43-2.34,0.72-3.45c-0.78-1.17-2.34-1.43-3.45-0.72c-4.75,2.99-10.02,4.95-15.62,5.73
			c-10.35,0.78-16.6,5.53-17.12,13.02c-0.07,1.37,0.91,2.54,2.34,2.67l0,0h0.2c1.3,0,2.41-1.04,2.47-2.34
			C135.22,42.3,142.97,40.87,147.33,40.47z M65.25,23.16c0.85,1.11,2.41,1.3,3.52,0.46s1.3-2.41,0.46-3.52
			c0-0.07-0.07-0.07-0.07-0.13L58.54,6.95c-0.85-1.11-2.41-1.3-3.52-0.46c-1.11,0.85-1.3,2.41-0.46,3.52c0,0.07,0.07,0.07,0.07,0.13
			L65.25,23.16z M76.44,15.93c0.39,0.98,1.3,1.63,2.34,1.63c1.37,0,2.47-1.17,2.47-2.54c0-0.26-0.07-0.52-0.13-0.78L76.44,2
			c-0.52-1.3-1.95-1.95-3.25-1.43s-1.95,1.95-1.43,3.25L76.44,15.93z M89.72,16.26c1.3,0,2.41-0.98,2.47-2.28l0.85-10.55
			c0.13-1.37-0.91-2.6-2.28-2.67l0,0c-1.37-0.13-2.54,0.85-2.67,2.21v0.07l-0.85,10.61c-0.07,1.37,0.98,2.54,2.34,2.67
			C89.59,16.26,89.66,16.26,89.72,16.26z"/>
		<path class="st0" d="M267.04,102.12c-12.95-4.1-43.48-3.78-68.28-2.6c16.6-20.96,16.6-41.27,13.67-50.84
			c-2.28-7.16-5.73-25.19-1.3-32.22c0.85-1.43,2.28-2.41,3.91-2.54c5.86-0.78,6.9-6.83,7.75-11.72c0.2-1.76,0.59-3.45,1.17-5.14
			c0.98-1.82,2.41-3.32,4.04-4.56c4.69-3.71,8.27-8.53,10.55-14.06c5.27-13.02-1.82-19.4-2.08-19.66c-0.26-0.2-0.59-0.33-0.91-0.46
			h-0.46c-5.47-1.43-11.2-0.52-16.01,2.41c-2.28,1.11-5.08,2.41-9.18,4.17c-8.85,4.49-19.66,2.67-26.62-4.36
			c-14.97-14.39-25.52-18.55-66.79-18.55s-51.69,4.17-66.53,18.55c-6.97,7.1-17.71,8.85-26.62,4.36c-3.12-1.3-6.18-2.67-9.18-4.17
			C9.4-42.26,3.6-43.11-1.87-41.67h-0.46c-0.33,0.07-0.65,0.2-0.91,0.46c-0.33,0.26-7.36,6.64-2.08,19.66
			C-3.04-16.03,0.61-11.21,5.23-7.5c1.69,1.24,3.06,2.73,4.04,4.56c0.33,1.76,0.52,3.52,0.59,5.27c0.85,4.88,1.89,10.94,7.75,11.72
			c1.63,0.2,3.12,1.11,3.91,2.54c4.43,7.03,0.98,25.06-1.3,32.22c-2.99,9.57-2.86,29.94,13.67,50.84c-24.8-1.11-55.33-1.5-68.28,2.6
			c-1.3,0.39-2.02,1.82-1.63,3.12c0.39,1.3,1.82,2.02,3.12,1.63c13.6-4.3,49.86-3.32,70.43-2.21h0.85l2.15,2.28
			c-25.52,0.39-42.9,2.15-51.55,5.27c-1.3,0.46-2.02,1.82-1.56,3.12c0.46,1.3,1.82,2.02,3.12,1.56c0.07,0,0.07,0,0.13-0.07
			c8.59-3.12,27.6-4.82,55.07-5.01c1.17,0.98,2.34,1.95,3.58,2.93c-21.55,1.17-56.57,4.04-69.85,9.96
			c-1.24,0.65-1.69,2.15-1.04,3.38c0.59,1.11,1.89,1.56,2.99,1.17c13.87-6.12,53.83-8.79,73.88-9.83l3.32,2.41l0.33,0.26
			c-20.9,2.02-35.22,4.69-42.57,7.88c-1.24,0.65-1.69,2.15-1.04,3.38c0.59,1.11,1.89,1.56,2.99,1.17c6.9-2.99,21.48-5.6,42.31-7.55
			c-0.07,6.12,0.65,12.3,2.28,18.23c5.4,14.39,12.82,17.9,21.48,18.62c1.24,2.34,2.99,4.36,5.08,5.99
			c-4.62,4.23-8.46,9.24-11.26,14.84c-0.52,1.3,0.13,2.73,1.43,3.25s2.73-0.13,3.25-1.43c0.91-2.34,3.58-6.64,10.94-13.93
			c2.15,1.11,4.36,1.95,6.64,2.6c-1.63,3.65-2.67,7.49-3.06,11.39c-0.07,1.37,0.98,2.54,2.34,2.6l0,0c1.3,0,2.41-1.04,2.47-2.34
			c0.46-3.65,1.43-7.23,2.99-10.55c7.23,1.17,14.58,1.17,21.74,0c1.56,3.32,2.6,6.9,2.99,10.55c0.07,1.3,1.17,2.34,2.47,2.34
			c1.37-0.07,2.41-1.24,2.34-2.6l0,0c-0.39-3.97-1.37-7.81-2.93-11.46c2.28-0.65,4.56-1.5,6.64-2.6
			c7.36,7.29,9.96,11.59,10.94,13.93c0.52,1.3,1.95,1.95,3.25,1.43s1.95-1.95,1.43-3.25c-2.8-5.6-6.64-10.68-11.26-14.84
			c2.08-1.63,3.84-3.71,5.08-5.99c8.66-0.72,16.08-4.23,21.48-18.62c1.56-5.92,2.28-12.04,2.15-18.1
			c20.83,1.95,35.48,4.56,42.31,7.55c1.24,0.65,2.73,0.2,3.38-1.04c0.65-1.24,0.2-2.73-1.04-3.38c-0.13-0.07-0.26-0.13-0.33-0.13
			c-7.36-3.32-21.94-5.86-43.22-7.94l2.67-1.89l1.04-0.72c19.98,0.98,60.54,3.71,74.6,9.96c1.3,0.46,2.73-0.26,3.19-1.56
			c0.39-1.17-0.07-2.47-1.17-2.99c-13.47-5.92-48.63-8.72-70.11-9.96c1.24-0.98,2.47-1.95,3.71-2.93c27.53,0.2,46.54,1.89,55.2,5.01
			c1.3,0.46,2.73-0.26,3.12-1.56c0.39-1.24-0.2-2.6-1.43-3.12c-8.66-3.12-25.97-4.88-51.55-5.27l2.15-2.28h0.85
			c20.44-1.04,56.83-2.15,70.43,2.21c1.43,0.46,2.93-0.39,3.32-1.76C269.25,104.07,268.47,102.57,267.04,102.12z M127.35,165
			c-0.72-1.17-2.21-1.63-3.38-0.91c-1.17,0.72-1.63,2.21-0.91,3.38c0.52,0.91,1.3,2.34,2.15,3.97c-5.73,0.85-11.59,0.85-17.38,0
			c1.17-2.34,2.08-3.97,2.15-3.97c0.72-1.17,0.26-2.73-0.91-3.38c-1.17-0.72-2.73-0.26-3.38,0.91c0,0.2-1.37,2.41-2.86,5.53
			c-4.56-0.98-8.72-3.32-11.91-6.64h8.07c7.29,0,14-4.04,17.45-10.42c3.52,6.44,10.28,10.42,17.58,10.42h8.07
			c-3.19,3.38-7.36,5.66-11.91,6.64c-1.5-2.99-2.73-5.21-2.86-5.4L127.35,165z M184.24,107.65l-0.26,0.2
			c-2.8,2.34-5.86,4.62-8.92,6.64h-2.6c0.46-5.66,1.5-10.81,3.58-12.37c1.11-0.85,1.3-2.47,0.46-3.58c-0.85-1.11-2.47-1.3-3.58-0.46
			c-3.32,2.73-4.82,8.79-5.4,16.08h-2.02c-1.37-0.07-2.47,0.98-2.54,2.28c0,0.07,0,0.07,0,0.13c-0.07,1.37,1.04,2.54,2.41,2.54l0,0
			h1.89v2.47h-0.59c-1.37-0.07-2.54,0.91-2.67,2.28c-0.13,1.37,0.91,2.54,2.28,2.67h0.72c0.07,5.66-0.52,11.33-1.89,16.79
			c-4.69,12.5-10.28,15.1-18.49,15.49h-12.56c-8.2,0-14.91-6.64-15.04-14.84c1.17-1.11,2.47-2.02,3.84-2.8
			c3.32-2.15,8.2-5.08,6.44-9.31c-0.65-1.43-0.2-2.15,5.53-6.05l2.08-1.43c2.47-1.3,4.1-3.84,4.3-6.64
			c-0.13-2.15-1.3-4.17-3.19-5.34c-1.11-0.72-2.6-0.39-3.32,0.72c-0.65,1.11-0.33,2.54,0.72,3.32c0.26,0.2,0.85,0.78,0.91,1.24
			c0.07,0.46-0.59,1.37-2.21,2.47l-2.08,1.43c-5.4,3.65-9.7,6.64-7.29,11.85c-0.26,0.85-2.93,2.47-4.43,3.32
			c-1.3,0.78-2.54,1.63-3.78,2.54c-1.17-0.91-2.47-1.82-3.78-2.54c-1.56-0.85-3.06-1.89-4.43-3.12c2.34-5.53-1.95-8.46-7.29-12.11
			l-2.08-1.43c-1.63-1.11-2.21-2.02-2.21-2.47s0.59-1.04,0.85-1.24c1.11-0.78,1.37-2.34,0.59-3.45c-0.72-1.04-2.15-1.37-3.25-0.72
			c-1.82,1.17-2.99,3.12-3.19,5.34c0.2,2.8,1.82,5.34,4.3,6.64l2.08,1.43c5.73,3.91,6.18,4.62,5.53,6.05
			c-1.82,4.23,2.93,7.16,6.44,9.31c1.37,0.78,2.6,1.63,3.84,2.54c-0.07,8.33-6.77,15.04-15.1,15.04h-5.21
			c-12.37,0.33-19.98,0.46-25.91-15.49c-1.3-5.47-1.95-11.13-1.89-16.79h0.72c1.37-0.13,2.41-1.3,2.28-2.73
			c-0.13-1.37-1.3-2.41-2.73-2.28h-0.46v-2.47h1.89c1.37,0,2.47-1.11,2.47-2.47s-1.11-2.47-2.47-2.47h-2.02
			c-0.65-7.29-1.95-13.28-5.4-16.08c-1.17-0.98-2.86-0.78-3.84,0.39c-0.98,1.17-0.78,2.86,0.39,3.84c2.08,1.63,2.99,6.64,3.52,12.37
			h-3.19c-2.8-2.15-5.66-4.36-8.27-6.64c-0.13-0.2-0.33-0.33-0.52-0.46c-0.85-0.78-1.76-1.56-2.54-2.28l7.75,0.52h0.2
			c1.37,0.07,2.54-1.04,2.6-2.41c0.07-1.37-1.04-2.54-2.41-2.6c0,0-5.21-0.39-13.28-0.85c-18.1-20.57-18.55-40.55-15.69-49.6
			c0-0.26,7.75-25.32,0.78-36.32c-1.63-2.6-4.3-4.36-7.29-4.75c-2.08-0.26-2.73-3.32-3.32-7.62c-0.26-2.08-0.78-4.17-1.43-6.12
			c-1.24-2.54-3.12-4.82-5.4-6.51c-4.1-3.19-7.29-7.42-9.24-12.24c-3.32-7.88-0.78-12.17,0.33-13.54c2.41-0.2,4.88,0.39,6.9,1.82
			c0.26,0.2,25,18.36,35.87,18.36h1.17C33.22-9.71,27.36-0.6,27.36,8.38c0,1.37,1.11,2.47,2.47,2.47c1.37,0,2.47-1.11,2.47-2.47
			c0-9.37,8.66-19.59,22.07-26.17c5.21-0.78,10.28-2.47,14.91-4.95c1.24-0.65,1.69-2.15,1.04-3.38c-0.65-1.24-2.15-1.69-3.38-1.04
			l-0.07,0.07c-7.81,3.84-16.47,5.66-25.13,5.27c-4.17,0-12.11-4.04-19.46-8.46c10.48,4.75,22.85,2.41,30.92-5.73
			c13.28-12.69,21.61-17.12,63.21-17.12s49.86,4.43,63.21,17.12c5.08,5.14,11.98,8.07,19.2,8.14c3.91-0.07,7.81-0.85,11.46-2.28
			c-7.36,4.43-15.3,8.4-19.4,8.4c-8.72,0.39-17.32-1.43-25.13-5.27c-1.24-0.65-2.73-0.2-3.38,1.04c-0.65,1.17-0.2,2.67,0.98,3.32
			c4.69,2.54,9.76,4.23,14.97,5.01c13.28,6.64,22.07,16.6,22.07,26.17c0,1.37,1.11,2.47,2.47,2.47c1.37,0,2.47-1.11,2.47-2.47
			c0-8.98-5.86-18.1-15.82-25.26h1.43c10.87,0,35.67-18.16,35.87-18.36c2.02-1.37,4.43-2.02,6.83-1.82
			c1.11,1.43,3.52,5.73,0.33,13.54c-1.95,4.82-5.14,8.98-9.24,12.24c-2.28,1.69-4.17,3.91-5.4,6.51c-0.72,2.02-1.17,4.04-1.43,6.12
			c-0.78,4.43-1.37,7.36-3.32,7.62c-3.12,0.39-5.86,2.15-7.49,4.82c-7.03,11,0.65,36.13,0.78,36.32c2.86,9.05,2.41,29.1-15.69,49.6
			c-7.94,0.46-13.28,0.85-13.28,0.85c-1.37,0.07-2.47,1.24-2.41,2.6c0.07,1.37,1.24,2.47,2.6,2.41h0.2l7.75-0.52
			C186.19,106.02,185.15,106.81,184.24,107.65z"/>
		<path class="st0" d="M165.49,24.07c0.78,0,1.43-0.33,1.95-0.91l10.61-13.02c0.91-1.04,0.78-2.6-0.26-3.52
			c-1.04-0.91-2.6-0.78-3.52,0.26c0,0.07-0.07,0.07-0.07,0.13L163.6,20.03c-0.85,1.04-0.72,2.67,0.39,3.52
			C164.39,23.81,164.91,24.01,165.49,24.07L165.49,24.07z M153.12,17.37c0.33,0.07,0.59,0.07,0.91,0c1.04,0,1.95-0.65,2.34-1.63
			l4.69-12.24c0.52-1.3-0.13-2.73-1.43-3.25c-1.3-0.52-2.73,0.13-3.25,1.43l-4.69,12.24c-0.59,1.24,0,2.73,1.24,3.32
			C152.99,17.3,153.06,17.3,153.12,17.37z M142.97,16.32c1.37-0.13,2.41-1.3,2.28-2.67l0,0L144.4,3.05
			c-0.13-1.37-1.3-2.41-2.67-2.28c-1.37,0.13-2.41,1.3-2.28,2.67l0.85,10.61C140.37,15.41,141.54,16.45,142.97,16.32
			C142.9,16.32,142.97,16.32,142.97,16.32z"/>
		<circle class="st0" cx="76.83" cy="131.54" r="3.52"/>
		<circle class="st0" cx="78.01" cy="143.39" r="3.52"/>
		<circle class="st0" cx="87.12" cy="151.2" r="3.52"/>
		<circle class="st0" cx="90.18" cy="139.09" r="3.52"/>
		<circle class="st0" cx="99.88" cy="145.21" r="3.52"/>
		<circle class="st0" cx="155.79" cy="131.54" r="3.52"/>
		<circle class="st0" cx="154.62" cy="143.39" r="3.52"/>
		<circle class="st0" cx="145.51" cy="151.2" r="3.52"/>
		<circle class="st0" cx="142.45" cy="139.09" r="3.52"/>
		<circle class="st0" cx="132.75" cy="145.21" r="3.52"/>
		<path class="st0" d="M128.19,73.87c-1.37-0.13-2.6,0.91-2.67,2.28l0,0c-0.91,6.83-4.17,13.15-9.18,17.9
			c-4.95-4.82-8.2-11.13-9.05-17.97c-0.13-1.37-1.3-2.41-2.67-2.28c-1.37,0.13-2.41,1.3-2.28,2.67c1.24,8.85,5.6,16.99,12.43,22.85
			c0.46,0.39,0.98,0.59,1.56,0.59s1.11-0.2,1.56-0.59c6.77-5.86,11.2-13.93,12.43-22.85C130.34,75.23,129.43,74.13,128.19,73.87z
			 M84.32,82.85c-1.17-0.65-2.6-0.26-3.32,0.91c-0.65,1.17-1.56,2.41-2.41,3.71c-4.43,6.44-11.2,16.21-1.69,26.62
			c1.04,0.91,2.6,0.78,3.52-0.33c0.72-0.85,0.78-2.08,0.13-2.99c-6.31-6.83-3.12-12.69,2.15-20.31c0.98-1.43,1.89-2.73,2.6-4.04
			c0.72-1.17,0.39-2.73-0.78-3.45C84.45,82.92,84.38,82.85,84.32,82.85z M151.89,83.76c-0.72-1.17-2.21-1.63-3.38-0.91
			s-1.63,2.21-0.91,3.38c0.72,1.24,1.69,2.6,2.6,4.04c5.21,7.55,8.4,13.47,2.15,20.31c-1.04,0.91-1.17,2.47-0.33,3.52
			c0.91,1.04,2.47,1.17,3.52,0.33c0.2-0.13,0.33-0.33,0.46-0.52c9.5-10.28,2.73-19.98-1.69-26.62
			C153.45,86.11,152.6,84.93,151.89,83.76z M89.33,115.46c0.39-1.3-0.33-2.73-1.63-3.12c-1.3-0.39-2.73,0.33-3.12,1.63
			c-1.89,6.18,0.72,12.82,6.38,16.01c1.17,0.72,2.73,0.26,3.38-0.91c0.72-1.17,0.26-2.73-0.91-3.38
			C89.85,123.6,88.16,119.37,89.33,115.46z M141.67,129.85c5.6-3.19,8.27-9.83,6.38-16.01c-0.39-1.3-1.82-2.02-3.12-1.63
			c-1.3,0.39-2.02,1.82-1.63,3.12l0,0c1.17,3.91-0.52,8.07-4.1,10.09c-1.17,0.72-1.63,2.21-0.91,3.38c0.72,1.17,2.21,1.63,3.38,0.91
			C141.67,129.72,141.67,129.85,141.67,129.85z M125.91,115.92c-4.62,5.27-12.69,5.86-17.97,1.24c-0.46-0.39-0.85-0.78-1.24-1.24
			c-0.91-1.04-2.54-1.17-3.58-0.26c-1.04,0.91-1.17,2.54-0.26,3.58c6.38,7.42,17.51,8.27,24.93,1.95c0.72-0.59,1.3-1.24,1.95-1.95
			c0.91-1.04,0.78-2.67-0.26-3.58C128.45,114.75,126.83,114.88,125.91,115.92L125.91,115.92L125.91,115.92z M51.51,67.29
			c-1.17-0.78-2.67-0.46-3.45,0.72c-0.78,1.17-0.46,2.67,0.72,3.45c0.13,0.07,0.26,0.13,0.39,0.2c8.72,4.82,12.56,11.91,12.56,14.52
			c0,1.37,1.11,2.47,2.47,2.47c1.37,0,2.47-1.11,2.47-2.47C66.68,80.96,61.02,72.5,51.51,67.29z M184.83,68.27
			c-0.65-1.17-2.15-1.63-3.32-0.98c-9.57,5.21-15.3,13.73-15.3,18.88c0,1.37,1.11,2.47,2.47,2.47c1.37,0,2.47-1.11,2.47-2.47
			c0-2.54,3.78-9.7,12.56-14.52C184.96,71.07,185.48,69.51,184.83,68.27L184.83,68.27z"/>
	</g>
	<g id="_x35_afeb38c-54b7-45cf-8e8f-6e00f7dcb161">
		<path d="M265.4,216.93l-1.89-4.82h-7.29l-1.89,4.75h-1.24l6.12-15.23h1.37l6.12,15.23h-1.3V216.93z M256.61,211.08h6.44
			l-2.67-6.64l-0.59-1.63l0,0l-0.59,1.56L256.61,211.08z M286.49,209.45h6.25v7.49h-0.91l-0.07-2.67l0,0
			c-0.39,0.91-1.04,1.63-1.95,2.15l0,0l0,0c-0.91,0.52-2.02,0.72-3.32,0.72l0,0l0,0c-1.37,0-2.6-0.33-3.65-0.98l0,0l0,0
			c-1.04-0.65-1.82-1.56-2.41-2.73l0,0l0,0c-0.59-1.17-0.85-2.6-0.85-4.17l0,0l0,0c0-1.56,0.26-2.99,0.85-4.17l0,0l0,0
			c0.59-1.17,1.37-2.08,2.41-2.73l0,0l0,0c1.04-0.65,2.28-0.98,3.65-0.98l0,0l0,0c1.56,0,2.8,0.33,3.84,0.91l0,0l0,0
			c0.98,0.59,1.76,1.56,2.21,2.8l0,0l-1.04,0.52l0,0c-0.33-1.04-0.98-1.89-1.76-2.41l0,0l0,0c-0.85-0.52-1.89-0.85-3.19-0.85l0,0
			l0,0c-1.11,0-2.15,0.26-2.99,0.85l0,0l0,0c-0.85,0.52-1.5,1.37-2.02,2.34l0,0l0,0c-0.46,1.04-0.72,2.21-0.72,3.58l0,0l0,0
			c0,2.08,0.52,3.78,1.5,5.01l0,0l0,0c1.04,1.24,2.41,1.82,4.17,1.82l0,0l0,0c1.11,0,2.08-0.2,2.8-0.65l0,0l0,0
			c0.78-0.46,1.37-1.04,1.69-1.76l0,0l0,0c0.39-0.72,0.59-1.5,0.59-2.28l0,0v-0.85h-5.21v-0.98H286.49z M309.53,215.89h9.63v1.04
			h-10.74V201.7h10.42v1.04h-9.24v5.86h7.29v1.11h-7.29v6.18H309.53z M345.79,201.7v15.23h-1.43l-8.07-11.98l-1.11-2.02h-0.07
			l0.07,1.89v12.04h-1.11V201.7h1.5l8.07,11.91l1.17,2.02l-0.07-1.89V201.7H345.79z M374.17,213.09L374.17,213.09
			c-0.46,1.3-1.17,2.28-2.21,2.99l0,0l0,0c-1.11,0.72-2.34,1.04-3.84,1.04l0,0l0,0c-1.37,0-2.6-0.33-3.65-0.98l0,0l0,0
			c-1.04-0.65-1.82-1.56-2.41-2.73l0,0l0,0c-0.59-1.17-0.85-2.6-0.85-4.17l0,0l0,0c0-1.56,0.26-2.99,0.85-4.17l0,0l0,0
			c0.59-1.17,1.37-2.08,2.41-2.73l0,0l0,0c1.04-0.65,2.28-0.98,3.65-0.98l0,0l0,0c3.06,0,5.01,1.24,5.92,3.78l0,0l-1.11,0.52l0,0
			c-0.33-1.11-0.91-1.89-1.69-2.41l0,0l0,0c-0.78-0.52-1.76-0.78-2.99-0.78l0,0l0,0c-1.11,0-2.15,0.26-2.99,0.85l0,0l0,0
			c-0.85,0.52-1.56,1.37-2.02,2.34l0,0l0,0c-0.46,1.04-0.72,2.21-0.72,3.58l0,0l0,0c0,1.37,0.26,2.6,0.72,3.58l0,0l0,0
			c0.46,1.04,1.11,1.82,1.95,2.34l0,0l0,0c0.85,0.52,1.89,0.85,2.99,0.85l0,0l0,0c1.24,0,2.28-0.33,3.12-0.91l0,0l0,0
			c0.85-0.59,1.43-1.43,1.82-2.54l0,0L374.17,213.09z M390.25,215.89h9.63v1.04h-10.74V201.7h10.42v1.04h-9.24v5.86h7.36v1.11h-7.36
			v6.18H390.25z M438.36,201.7L438.36,201.7c2.41,0,4.3,0.65,5.6,1.95l0,0l0,0c1.3,1.3,1.95,3.12,1.95,5.6l0,0l0,0
			c0,2.47-0.65,4.43-1.95,5.73l0,0l0,0c-1.3,1.3-3.19,2.02-5.6,2.02l0,0h-4.82v-15.3H438.36z M438.49,215.89L438.49,215.89
			c2.02,0,3.58-0.59,4.69-1.76l0,0l0,0c1.11-1.17,1.63-2.8,1.63-4.95l0,0l0,0c0-2.08-0.52-3.65-1.63-4.75l0,0l0,0
			c-1.11-1.11-2.6-1.69-4.69-1.69l0,0h-3.78v13.15H438.49z M462.51,215.89h9.63v1.04H461.4V201.7h10.42v1.04h-9.24v5.86h7.29v1.11
			h-7.29v6.18H462.51z M513.34,206.26l-3.06,10.68h-1.43l-4.75-15.23h1.24l4.23,14.32l3.97-14.32h1.37l3.97,14.32l4.3-14.32h1.17
			l-4.75,15.23h-1.43l-3.06-10.68l-0.85-3.32h-0.07L513.34,206.26z M540.16,215.89h9.63v1.04h-10.81V201.7h10.42v1.04h-9.24v5.86
			h7.36v1.11h-7.36V215.89z M564.7,216.93V201.7h5.4l0,0c1.69,0,2.93,0.33,3.78,1.04l0,0l0,0c0.78,0.72,1.24,1.69,1.24,2.99l0,0l0,0
			c0,0.91-0.26,1.63-0.72,2.28l0,0l0,0c-0.46,0.59-1.17,1.04-2.08,1.17l0,0l0,0l0,0c0.98,0.13,1.76,0.59,2.34,1.17l0,0l0,0
			c0.59,0.65,0.85,1.43,0.85,2.41l0,0l0,0c0,1.3-0.46,2.34-1.43,3.06l0,0l0,0c-0.91,0.72-2.28,1.04-3.97,1.04l0,0h-5.4V216.93z
			 M565.81,208.73h4.23l0,0c2.47,0,3.71-0.98,3.71-2.99l0,0l0,0c0-2.02-1.24-2.99-3.71-2.99l0,0h-4.23V208.73z M565.81,215.89h4.43
			l0,0c1.3,0,2.28-0.26,2.93-0.78l0,0l0,0c0.65-0.52,0.98-1.3,0.98-2.28l0,0l0,0c0-0.98-0.33-1.76-0.98-2.28l0,0l0,0
			c-0.65-0.52-1.63-0.78-2.93-0.78l0,0h-4.43V215.89z M614.37,201.7L614.37,201.7c2.47,0,4.3,0.65,5.6,1.95l0,0l0,0
			c1.3,1.3,1.95,3.12,1.95,5.6l0,0l0,0c0,2.47-0.65,4.43-1.95,5.73l0,0l0,0c-1.3,1.3-3.19,2.02-5.6,2.02l0,0h-4.82v-15.3H614.37z
			 M614.5,215.89L614.5,215.89c2.02,0,3.58-0.59,4.69-1.76l0,0l0,0c1.11-1.17,1.63-2.8,1.63-4.95l0,0l0,0
			c0-2.08-0.52-3.65-1.63-4.75l0,0l0,0c-1.11-1.11-2.67-1.69-4.69-1.69l0,0h-3.78v13.15H614.5z M638.59,215.89h9.63v1.04h-10.81
			V201.7h10.42v1.04h-9.24v5.86h7.36v1.11h-7.36V215.89z M667.81,201.44L667.81,201.44c2.86,0,4.82,1.11,5.73,3.38l0,0l-0.98,0.78
			l0,0c-0.39-1.11-0.98-1.89-1.76-2.34l0,0l0,0c-0.78-0.52-1.76-0.72-2.99-0.72l0,0l0,0c-0.91,0-1.69,0.13-2.34,0.46l0,0l0,0
			c-0.65,0.26-1.17,0.65-1.5,1.11l0,0l0,0c-0.33,0.46-0.52,1.04-0.52,1.63l0,0l0,0c0,0.59,0.13,1.04,0.46,1.43l0,0l0,0
			c0.26,0.39,0.78,0.72,1.5,0.98l0,0l0,0c0.72,0.26,1.69,0.52,2.93,0.72l0,0l0,0c1.95,0.33,3.38,0.85,4.23,1.5l0,0l0,0
			c0.85,0.65,1.24,1.5,1.24,2.67l0,0l0,0c0,0.85-0.26,1.56-0.72,2.15l0,0l0,0c-0.46,0.65-1.17,1.11-2.02,1.43l0,0l0,0
			c-0.91,0.33-1.89,0.52-2.99,0.52l0,0l0,0c-1.56,0-2.93-0.33-4.04-0.98l0,0l0,0c-1.11-0.65-1.89-1.56-2.28-2.67l0,0l1.04-0.78l0,0
			c0.33,1.11,0.91,1.95,1.82,2.54l0,0l0,0c0.91,0.59,2.08,0.85,3.45,0.85l0,0l0,0c1.3,0,2.41-0.26,3.25-0.78l0,0l0,0
			c0.85-0.52,1.3-1.3,1.3-2.21l0,0l0,0c0-0.85-0.33-1.43-1.04-1.95l0,0l0,0c-0.65-0.46-1.89-0.85-3.58-1.17l0,0l0,0
			c-1.43-0.26-2.54-0.59-3.38-0.91l0,0l0,0c-0.85-0.33-1.43-0.78-1.76-1.3l0,0l0,0c-0.39-0.52-0.52-1.17-0.52-1.95l0,0l0,0
			c0-0.78,0.2-1.5,0.65-2.15l0,0l0,0c0.46-0.65,1.11-1.17,1.95-1.56l0,0l0,0C665.67,201.64,666.64,201.44,667.81,201.44
			L667.81,201.44z M690.08,201.7v15.23h-1.17V201.7H690.08z M712.27,209.45h6.25v7.49h-0.91l-0.07-2.67l0,0
			c-0.39,0.91-1.04,1.63-1.95,2.15l0,0l0,0c-0.91,0.52-1.95,0.72-3.25,0.72l0,0l0,0c-1.37,0-2.6-0.33-3.65-0.98l0,0l0,0
			c-1.04-0.65-1.82-1.56-2.41-2.73l0,0l0,0c-0.59-1.17-0.85-2.6-0.85-4.17l0,0l0,0c0-1.56,0.26-2.99,0.85-4.17l0,0l0,0
			c0.59-1.17,1.37-2.08,2.47-2.73l0,0l0,0c1.04-0.65,2.28-0.98,3.65-0.98l0,0l0,0c1.56,0,2.8,0.33,3.84,0.91l0,0l0,0
			c0.98,0.59,1.76,1.56,2.21,2.8l0,0l-1.04,0.52l0,0c-0.33-1.04-0.98-1.89-1.76-2.41l0,0l0,0c-0.85-0.52-1.89-0.85-3.19-0.85l0,0
			l0,0c-1.17,0-2.15,0.26-2.99,0.85l0,0l0,0c-0.85,0.52-1.5,1.37-2.02,2.34l0,0l0,0c-0.46,1.04-0.72,2.21-0.72,3.58l0,0l0,0
			c0,2.08,0.52,3.78,1.5,5.01l0,0l0,0c0.98,1.24,2.41,1.82,4.17,1.82l0,0l0,0c1.11,0,2.02-0.2,2.8-0.65l0,0l0,0
			c0.78-0.46,1.37-1.04,1.69-1.76l0,0l0,0c0.39-0.72,0.59-1.5,0.59-2.28l0,0v-0.85h-5.21L712.27,209.45L712.27,209.45z
			 M745.86,201.7v15.23h-1.43l-8.07-11.98l-1.11-2.02h-0.07l0.07,1.89v12.04h-1.11V201.7h1.43l8.07,11.91l1.17,2.02l-0.07-1.89
			V201.7H745.86z"/>
	</g>
</g>
</svg>
