<?xml version="1.0" encoding="utf-8"?>
<!-- Generator: Adobe Illustrator 26.2.1, SVG Export Plug-In . SVG Version: 6.00 Build 0)  -->
<svg version="1.1" id="Calque_1" xmlns="http://www.w3.org/2000/svg" xmlns:xlink="http://www.w3.org/1999/xlink" x="0px" y="0px"
	 viewBox="0 0 120 40" style="enable-background:new 0 0 120 40;" xml:space="preserve">
<style type="text/css">
	.st0{fill:#1D1D1B;}
</style>
<g>
	<g id="dff727ea-c914-4c1d-9325-86d683f65698">
		<path d="M41.2,19.74L41.2,19.74L41.2,19.74c-0.08-0.21-0.12-0.5-0.12-0.87l0,0l0,0c0-0.37,0.13-1.47,0.38-3.29l0,0l0,0
			c0.25-1.82,0.38-3.28,0.38-4.38l0,0l0,0c0-0.26-0.02-0.61-0.06-1.06l0,0l0,0c0.65,0.04,1.06,0.19,1.23,0.46l0,0l0,0
			c0.09,0.16,0.14,0.31,0.17,0.45l0,0l0,0c0.02,0.14,0.04,0.37,0.04,0.67l0,0l0,0c0,0.3-0.14,1.45-0.42,3.45l0,0l0,0
			c-0.28,2-0.43,3.42-0.43,4.27l0,0l0,0c0.04-0.01,0.12-0.02,0.23-0.02l0,0l0,0c1.87,0,3.26-0.13,4.17-0.39l0,0l0,0
			c-0.06,0.5-0.23,0.89-0.51,1.16l0,0l0,0c-0.28,0.28-0.63,0.42-1.05,0.42l0,0l0,0c-0.12,0-0.5-0.03-1.12-0.08l0,0l0,0
			c-0.63-0.06-1.24-0.08-1.82-0.08l0,0l0,0c-0.59,0-1.17,0.06-1.76,0.17l0,0l0,0C40.62,20.23,40.85,19.94,41.2,19.74z M49.71,15.45
			L49.71,15.45L49.71,15.45c-0.25,0.43-0.44,0.87-0.57,1.33l0,0l0,0c-0.14,0.45-0.2,0.88-0.2,1.3l0,0l0,0
			c0,0.41,0.09,0.76,0.28,1.05l0,0l0,0c0.18,0.29,0.45,0.43,0.79,0.43l0,0l0,0c0.49,0,0.94-0.26,1.36-0.79l0,0l0,0
			c0.43-0.54,0.75-1.18,0.98-1.93l0,0l0,0c0.23-0.76,0.34-1.46,0.34-2.1l0,0l0,0c0-0.64-0.02-1.17-0.07-1.58l0,0l0,0
			c0.2-0.02,0.33-0.03,0.39-0.03l0,0l0,0c0.73,0,1.1,0.38,1.1,1.13l0,0l0,0c0,0.16-0.1,0.83-0.31,2l0,0l0,0
			c-0.2,1.17-0.3,2.11-0.3,2.81l0,0l0,0c0,0.7,0.13,1.32,0.4,1.87l0,0l0,0c-0.54-0.11-0.94-0.35-1.18-0.72l0,0l0,0
			c-0.25-0.36-0.37-0.89-0.37-1.58l0,0l0,0c0-0.12,0.02-0.36,0.06-0.7l0,0l0,0c-0.23,0.82-0.64,1.48-1.23,1.98l0,0l0,0
			c-0.59,0.51-1.17,0.76-1.73,0.76l0,0l0,0c-0.57,0-1.02-0.22-1.37-0.65l0,0l0,0c-0.34-0.43-0.52-1.01-0.52-1.76l0,0l0,0
			c0-0.76,0.14-1.5,0.43-2.22l0,0l0,0c0.28-0.72,0.7-1.34,1.27-1.87l0,0l0,0c0.56-0.53,1.19-0.79,1.89-0.79l0,0l0,0
			c0.3,0,0.63,0.06,1,0.18l0,0l0,0c-0.51,0.13-0.98,0.37-1.4,0.71l0,0l0,0C50.3,14.62,49.96,15.01,49.71,15.45z M62.73,11.52
			L62.73,11.52l0.01,0.16l0,0c0,0.33-0.12,1.4-0.37,3.22l0,0l0,0C62.12,16.71,62,18.22,62,19.44l0,0l0,0c0,0.54,0.03,0.96,0.08,1.27
			l0,0l0,0c-0.21,0.02-0.32,0.03-0.34,0.03l0,0l0,0c-0.39,0-0.68-0.09-0.87-0.27l0,0l0,0C60.69,20.29,60.6,20,60.6,19.6l0,0l0,0
			c0-0.4,0.14-1.63,0.43-3.68l0,0l0,0c0.28-2.05,0.43-3.51,0.43-4.38l0,0l0,0c0-0.87-0.06-1.45-0.18-1.72l0,0l0,0
			c0.28,0.04,0.53,0.14,0.77,0.32l0,0l0,0c0.24,0.17,0.42,0.41,0.54,0.7l0,0l0,0c0.66-0.35,1.39-0.53,2.2-0.53l0,0l0,0
			c0.8,0,1.43,0.25,1.89,0.74l0,0l0,0c0.46,0.5,0.69,1.11,0.69,1.83l0,0l0,0c0,0.92-0.34,1.76-1.01,2.49l0,0l0,0
			c-0.67,0.73-1.58,1.1-2.72,1.1l0,0l0,0c-0.26,0-0.5-0.02-0.71-0.05l0,0l-0.04-0.42l0,0c0.58,0,1.08-0.09,1.52-0.26l0,0l0,0
			c0.43-0.17,0.76-0.4,0.98-0.68l0,0l0,0c0.44-0.55,0.66-1.2,0.66-1.94l0,0l0,0c0-0.54-0.17-0.98-0.51-1.34l0,0l0,0
			c-0.34-0.36-0.83-0.54-1.48-0.54l0,0l0,0C63.67,11.26,63.23,11.35,62.73,11.52z M70.23,15.45L70.23,15.45L70.23,15.45
			c-0.25,0.43-0.45,0.87-0.58,1.33l0,0l0,0c-0.13,0.45-0.19,0.88-0.19,1.3l0,0l0,0c0,0.41,0.09,0.76,0.28,1.05l0,0l0,0
			c0.18,0.29,0.45,0.43,0.79,0.43l0,0l0,0c0.48,0,0.93-0.26,1.36-0.79l0,0l0,0c0.42-0.54,0.74-1.18,0.97-1.93l0,0l0,0
			c0.23-0.76,0.35-1.46,0.35-2.1l0,0l0,0c0-0.64-0.03-1.17-0.08-1.58l0,0l0,0c0.21-0.02,0.34-0.03,0.39-0.03l0,0l0,0
			c0.73,0,1.1,0.38,1.1,1.13l0,0l0,0c0,0.16-0.1,0.83-0.3,2l0,0l0,0c-0.21,1.17-0.31,2.11-0.31,2.81l0,0l0,0
			c0,0.7,0.13,1.32,0.4,1.87l0,0l0,0c-0.54-0.11-0.94-0.35-1.18-0.72l0,0l0,0c-0.25-0.36-0.37-0.89-0.37-1.58l0,0l0,0
			c0-0.12,0.02-0.36,0.06-0.7l0,0l0,0c-0.23,0.82-0.64,1.48-1.23,1.98l0,0l0,0c-0.59,0.51-1.16,0.76-1.73,0.76l0,0l0,0
			c-0.57,0-1.02-0.22-1.37-0.65l0,0l0,0c-0.34-0.43-0.52-1.01-0.52-1.76l0,0l0,0c0-0.76,0.14-1.5,0.43-2.22l0,0l0,0
			c0.28-0.72,0.7-1.34,1.27-1.87l0,0l0,0c0.57-0.53,1.2-0.79,1.89-0.79l0,0l0,0c0.3,0,0.63,0.06,1,0.18l0,0l0,0
			c-0.51,0.13-0.98,0.37-1.4,0.71l0,0l0,0C70.82,14.62,70.48,15.01,70.23,15.45z M82.61,14.89L82.61,14.89L82.61,14.89
			c0,0.39-0.08,1.09-0.25,2.1l0,0l0,0c-0.17,1-0.25,1.74-0.25,2.2l0,0l0,0c0,0.46,0.06,0.79,0.17,0.99l0,0l0,0
			c0.11,0.2,0.3,0.38,0.57,0.52l0,0l0,0c-0.12,0.01-0.28,0.02-0.48,0.02l0,0l0,0c-0.59,0-1-0.11-1.25-0.33l0,0l0,0
			c-0.25-0.22-0.37-0.62-0.37-1.18l0,0l0,0c0-0.32,0.09-0.96,0.26-1.93l0,0l0,0c0.17-0.97,0.26-1.69,0.26-2.14l0,0l0,0
			c0-0.57-0.17-0.85-0.52-0.85l0,0l0,0c-0.55,0-1.13,0.49-1.72,1.46l0,0l0,0c-0.59,0.97-0.89,2.15-0.89,3.52l0,0l0,0
			c0,0.54,0.03,0.96,0.08,1.27l0,0l0,0c-0.23,0.02-0.36,0.03-0.41,0.03l0,0l0,0c-0.76,0-1.14-0.37-1.14-1.12l0,0l0,0
			c0-0.17,0.09-0.83,0.28-1.99l0,0l0,0c0.18-1.16,0.27-2.08,0.27-2.76l0,0l0,0c0-0.69-0.07-1.32-0.22-1.89l0,0l0,0
			c0.51,0.2,0.87,0.48,1.07,0.84l0,0l0,0c0.2,0.37,0.3,0.79,0.3,1.26l0,0l0,0c0,0.47-0.05,1.01-0.16,1.64l0,0l0,0
			c0.28-0.97,0.73-1.79,1.34-2.46l0,0l0,0c0.6-0.67,1.17-1.01,1.7-1.01l0,0l0,0C82.16,13.05,82.61,13.66,82.61,14.89z M88.81,13.43
			L88.81,13.43L88.81,13.43c0,0.36-0.07,0.61-0.2,0.75l0,0l0,0c-0.14,0.14-0.34,0.2-0.61,0.2l0,0h-0.93l0,0
			c-0.04,0.23-0.13,0.76-0.27,1.61l0,0l0,0c-0.3,1.6-0.44,2.81-0.44,3.63l0,0l0,0c0,0.82,0.06,1.36,0.18,1.64l0,0l0,0
			c-0.49-0.18-0.84-0.46-1.05-0.82l0,0l0,0c-0.2-0.37-0.3-0.82-0.3-1.34l0,0l0,0c0-0.53,0.03-1.03,0.09-1.5l0,0l0,0
			c0.07-0.47,0.16-1.02,0.28-1.64l0,0l0,0c0.12-0.63,0.21-1.14,0.26-1.52l0,0l0,0c-0.49,0.07-0.98,0.21-1.45,0.42l0,0l0,0
			c-0.01-0.14-0.02-0.27-0.02-0.38l0,0l0,0c0-0.41,0.14-0.69,0.41-0.83l0,0l0,0c0.28-0.14,0.67-0.21,1.19-0.21l0,0l0,0
			c0.06-0.64,0.09-1.12,0.09-1.43l0,0l0,0c0-0.31,0-0.57-0.01-0.76l0,0l0,0c0-0.19,0-0.33,0-0.43l0,0l0,0
			c0.39,0.06,0.7,0.24,0.91,0.53l0,0l0,0c0.22,0.28,0.32,0.68,0.32,1.18l0,0l0,0c0,0.26-0.02,0.57-0.06,0.94l0,0l0,0
			c0.75,0,1.28-0.13,1.59-0.38l0,0l0,0C88.8,13.21,88.81,13.32,88.81,13.43z M91.24,16.51L91.24,16.51
			c0.28-0.97,0.72-1.79,1.31-2.46l0,0l0,0c0.59-0.67,1.15-1.01,1.66-1.01l0,0l0,0c0.52,0,0.88,0.16,1.1,0.47l0,0l0,0
			c0.22,0.31,0.32,0.74,0.32,1.28l0,0l0,0c0,0.54-0.08,1.29-0.25,2.26l0,0l0,0c-0.17,0.98-0.25,1.69-0.25,2.13l0,0l0,0
			c0,0.44,0.06,0.77,0.17,0.97l0,0l0,0c0.11,0.2,0.3,0.38,0.56,0.52l0,0l0,0c-0.11,0.01-0.27,0.02-0.47,0.02l0,0l0,0
			c-0.55,0-0.96-0.11-1.23-0.34l0,0l0,0c-0.26-0.23-0.39-0.62-0.39-1.17l0,0l0,0c0-0.32,0.09-0.96,0.26-1.93l0,0l0,0
			c0.17-0.97,0.26-1.69,0.26-2.14l0,0l0,0c0-0.57-0.2-0.85-0.6-0.85l0,0l0,0c-0.23,0-0.49,0.12-0.78,0.37l0,0l0,0
			c-0.28,0.24-0.56,0.57-0.82,0.99l0,0l0,0c-0.26,0.42-0.48,0.95-0.66,1.6l0,0l0,0c-0.18,0.64-0.27,1.27-0.27,1.89l0,0l0,0
			c0,0.63,0.03,1.09,0.08,1.4l0,0l0,0c-0.21,0.02-0.33,0.03-0.35,0.03l0,0l0,0c-0.41,0-0.71-0.09-0.9-0.26l0,0l0,0
			c-0.2-0.17-0.3-0.44-0.3-0.81l0,0l0,0c0-0.36,0.08-1.07,0.23-2.12l0,0l0,0c0.46-3.21,0.68-5.65,0.68-7.31l0,0l0,0
			c0-0.75-0.05-1.26-0.15-1.52l0,0l0,0c0.5,0.18,0.85,0.45,1.05,0.8l0,0l0,0c0.2,0.36,0.3,0.84,0.3,1.46l0,0l0,0
			c0,0.43-0.09,1.34-0.26,2.72l0,0l0,0C91.41,14.89,91.3,15.89,91.24,16.51L91.24,16.51z M101.02,13.72L101.02,13.72L101.02,13.72
			c-0.52,0-0.95,0.3-1.31,0.89l0,0l0,0c-0.36,0.6-0.6,1.3-0.72,2.1l0,0h0.36l0,0c0.46,0,0.85-0.06,1.19-0.19l0,0l0,0
			c0.33-0.13,0.59-0.3,0.78-0.5l0,0l0,0c0.34-0.4,0.52-0.85,0.52-1.35l0,0l0,0c0-0.28-0.07-0.51-0.2-0.68l0,0l0,0
			C101.5,13.81,101.29,13.72,101.02,13.72z M102.84,18.96L102.84,18.96c-0.39,0.65-0.83,1.1-1.3,1.36l0,0l0,0
			c-0.47,0.26-1.03,0.39-1.65,0.39l0,0l0,0c-0.62,0-1.17-0.28-1.64-0.83l0,0l0,0c-0.47-0.55-0.7-1.32-0.7-2.33l0,0l0,0
			c0-1.14,0.31-2.16,0.92-3.05l0,0l0,0c0.3-0.43,0.7-0.78,1.18-1.05l0,0l0,0c0.49-0.26,1.02-0.4,1.61-0.4l0,0l0,0
			c1.29,0,1.94,0.63,1.94,1.88l0,0l0,0c0,0.75-0.29,1.34-0.87,1.76l0,0l0,0c-0.59,0.43-1.26,0.64-2.02,0.64l0,0l0,0
			c-0.51,0-0.97-0.05-1.38-0.14l0,0l0,0c-0.01,0.09-0.01,0.22-0.01,0.4l0,0l0,0c0,1.53,0.45,2.29,1.36,2.29l0,0l0,0
			c0.85,0,1.54-0.42,2.08-1.27l0,0l0,0C102.68,18.65,102.84,18.77,102.84,18.96L102.84,18.96z M102.58,12.08L102.58,12.08
			L102.58,12.08c-0.01,0.09-0.05,0.18-0.14,0.27l0,0l0,0c-0.08,0.08-0.17,0.13-0.28,0.16l0,0l0,0c-0.31-0.39-0.71-0.77-1.19-1.15
			l0,0l0,0c-0.49-0.38-0.98-0.65-1.49-0.8l0,0l0,0c0.02-0.45,0.23-0.8,0.63-1.06l0,0l0,0c0.46,0.18,0.93,0.54,1.41,1.07l0,0l0,0
			C102.02,11.09,102.37,11.6,102.58,12.08z M106.4,16.31L106.4,16.31c0.31-1.12,0.68-1.95,1.12-2.48l0,0l0,0
			c0.44-0.53,0.84-0.79,1.22-0.79l0,0l0,0c0.38,0,0.66,0.14,0.84,0.42l0,0l0,0c0.19,0.28,0.29,0.64,0.29,1.07l0,0l0,0
			c0,0.43-0.11,0.8-0.33,1.12l0,0l0,0c-0.23,0.31-0.56,0.47-0.99,0.47l0,0l0,0c-0.14,0-0.24-0.01-0.32-0.03l0,0l0,0
			c0.3-0.43,0.44-0.86,0.44-1.29l0,0l0,0c0-0.31-0.13-0.46-0.38-0.46l0,0l0,0c-0.2,0-0.41,0.11-0.63,0.34l0,0l0,0
			c-0.23,0.23-0.44,0.56-0.65,0.97l0,0l0,0c-0.21,0.42-0.38,0.96-0.52,1.62l0,0l0,0c-0.14,0.67-0.21,1.38-0.21,2.15l0,0l0,0
			c0,0.09,0.02,0.45,0.06,1.1l0,0l0,0c-0.22,0.02-0.35,0.03-0.39,0.03l0,0l0,0c-0.76,0-1.14-0.37-1.14-1.12l0,0l0,0
			c0-0.17,0.09-0.83,0.28-1.99l0,0l0,0c0.18-1.16,0.27-2.08,0.27-2.76l0,0l0,0c0-0.69-0.07-1.32-0.22-1.89l0,0l0,0
			c0.51,0.2,0.87,0.48,1.07,0.84l0,0l0,0c0.2,0.37,0.3,0.8,0.3,1.28l0,0l0,0C106.52,15.39,106.48,15.86,106.4,16.31L106.4,16.31z
			 M114.02,13.72L114.02,13.72L114.02,13.72c-0.52,0-0.96,0.3-1.32,0.89l0,0l0,0c-0.36,0.6-0.59,1.3-0.71,2.1l0,0h0.36l0,0
			c0.46,0,0.85-0.06,1.19-0.19l0,0l0,0c0.33-0.13,0.59-0.3,0.78-0.5l0,0l0,0c0.34-0.4,0.52-0.85,0.52-1.35l0,0l0,0
			c0-0.28-0.07-0.51-0.2-0.68l0,0l0,0C114.5,13.81,114.3,13.72,114.02,13.72z M115.84,18.96L115.84,18.96
			c-0.39,0.65-0.83,1.1-1.3,1.36l0,0l0,0c-0.47,0.26-1.03,0.39-1.65,0.39l0,0l0,0c-0.62,0-1.17-0.28-1.64-0.83l0,0l0,0
			c-0.47-0.55-0.7-1.32-0.7-2.33l0,0l0,0c0-1.14,0.31-2.16,0.92-3.05l0,0l0,0c0.3-0.43,0.7-0.78,1.18-1.05l0,0l0,0
			c0.49-0.26,1.02-0.4,1.61-0.4l0,0l0,0c1.29,0,1.94,0.63,1.94,1.88l0,0l0,0c0,0.75-0.29,1.34-0.87,1.76l0,0l0,0
			c-0.59,0.43-1.26,0.64-2.02,0.64l0,0l0,0c-0.51,0-0.97-0.05-1.38-0.14l0,0l0,0c-0.01,0.09-0.01,0.22-0.01,0.4l0,0l0,0
			c0,1.53,0.45,2.29,1.36,2.29l0,0l0,0c0.85,0,1.54-0.42,2.08-1.27l0,0l0,0C115.68,18.65,115.84,18.77,115.84,18.96L115.84,18.96z"
			/>
	</g>
	
		<g id="dfe8044c-91b6-4966-9038-a63642c35301" transform="matrix(0.6414999074478166,0,0,0.6414999074478166,37.325639709553826,117.89613952995941)">
		<path class="st0" d="M-31.92-154.64v-0.04c-0.39-0.69-1.04-1.19-1.8-1.39h-0.07c-0.42-0.13-0.84-0.21-1.28-0.24
			c-1.17-0.16-2.29-0.57-3.29-1.22c-0.18-0.11-0.42-0.05-0.53,0.13c-0.1,0.17-0.06,0.38,0.1,0.5c0.33,0.21,0.67,0.4,1.02,0.57
			c0,0.05-0.05,0.1-0.06,0.16c-0.47,1.64,0.48,3.36,2.12,3.84c0.3,0.08,0.6,0.13,0.91,0.13c0.94,0,1.82-0.43,2.4-1.16
			c0.04,0.51,0.01,1.03-0.09,1.53c-0.08,0.2,0.01,0.42,0.21,0.5c0.01,0,0.02,0.01,0.03,0.01c0.04,0.01,0.08,0.01,0.12,0
			c0.16,0,0.31-0.1,0.36-0.26c0.16-0.69,0.2-1.4,0.12-2.09C-31.67-154.01-31.76-154.34-31.92-154.64z M-34.2-155.4
			c0.02,0.09,0.02,0.18,0,0.27c-0.1,0.36-0.47,0.57-0.83,0.46s-0.57-0.47-0.46-0.83c0.01-0.03,0.03-0.06,0.05-0.09l0.31,0.04
			c0.32,0.02,0.64,0.07,0.95,0.15L-34.2-155.4z M-33.72-153.23c-0.55,0.28-1.19,0.34-1.78,0.16c-1.24-0.36-1.96-1.65-1.6-2.9v-0.06
			c0.28,0.11,0.57,0.2,0.87,0.28v0.03c-0.24,0.75,0.18,1.56,0.93,1.8c0.75,0.24,1.56-0.18,1.8-0.93c0.03-0.09,0.05-0.18,0.06-0.27
			c0.31,0.16,0.57,0.39,0.76,0.67c-0.18,0.52-0.54,0.95-1.02,1.21H-33.72z M-19.87-156.17c0-0.06-0.04-0.1-0.06-0.16
			c0.35-0.17,0.69-0.36,1.02-0.57c0.17-0.13,0.2-0.37,0.07-0.54c-0.12-0.16-0.33-0.2-0.5-0.1c-0.99,0.64-2.11,1.06-3.29,1.22
			c-0.44,0.03-0.87,0.11-1.29,0.24h-0.06c-0.77,0.2-1.42,0.71-1.81,1.4v0.03c-0.16,0.31-0.25,0.65-0.28,1
			c-0.09,0.7-0.05,1.41,0.12,2.09c0.05,0.16,0.2,0.26,0.36,0.26c0.21,0,0.39-0.16,0.39-0.38c0-0.05-0.01-0.09-0.02-0.13
			c-0.11-0.5-0.14-1.02-0.1-1.53c0.57,0.74,1.46,1.17,2.4,1.16c0.31,0,0.61-0.04,0.91-0.13c1.65-0.47,2.61-2.19,2.14-3.85
			C-19.87-156.16-19.87-156.16-19.87-156.17z M-22.58-155.55l0.31-0.04c0.02,0.03,0.03,0.06,0.05,0.09c0.1,0.35-0.1,0.72-0.45,0.82
			c-0.34,0.11-0.71-0.09-0.81-0.43c-0.03-0.09-0.04-0.19-0.02-0.29C-23.21-155.47-22.89-155.52-22.58-155.55L-22.58-155.55z
			 M-22.21-153.06c-0.59,0.18-1.23,0.12-1.78-0.16c-0.48-0.26-0.85-0.7-1.02-1.22c0.19-0.28,0.45-0.52,0.76-0.67
			c0.01,0.06,0.02,0.13,0.04,0.19c0.18,0.61,0.74,1.02,1.37,1.02c0.79-0.02,1.42-0.67,1.4-1.46c0-0.11-0.02-0.22-0.05-0.33v-0.03
			c0.29-0.08,0.58-0.17,0.87-0.28v0.06C-20.27-154.71-20.98-153.43-22.21-153.06z"/>
		<path class="st0" d="M-30.73-155.24c-0.08-1.15-1.02-1.88-2.63-2c-0.85-0.11-1.67-0.41-2.39-0.86c-0.18-0.12-0.41-0.07-0.53,0.11
			c-0.12,0.18-0.07,0.41,0.11,0.53c0.83,0.53,1.78,0.87,2.76,0.99c0.69,0.05,1.85,0.29,1.93,1.29c0.01,0.2,0.18,0.36,0.38,0.36h0.03
			C-30.87-154.85-30.71-155.03-30.73-155.24z M-24.09-156.48c0.98-0.12,1.92-0.45,2.76-0.99c0.18-0.12,0.22-0.36,0.11-0.53
			c-0.12-0.18-0.36-0.22-0.53-0.11c-0.73,0.46-1.54,0.76-2.4,0.88c-1.59,0.12-2.55,0.85-2.63,2c-0.01,0.21,0.14,0.39,0.36,0.41
			c0,0,0,0,0,0h0.03c0.2,0,0.37-0.16,0.38-0.36C-25.95-156.2-24.76-156.42-24.09-156.48z M-36.7-159.14
			c0.13,0.17,0.37,0.2,0.54,0.07s0.2-0.37,0.07-0.54c0-0.01-0.01-0.01-0.01-0.02l-1.63-2c-0.13-0.17-0.37-0.2-0.54-0.07
			c-0.17,0.13-0.2,0.37-0.07,0.54c0,0.01,0.01,0.01,0.01,0.02L-36.7-159.14z M-34.98-160.25c0.06,0.15,0.2,0.25,0.36,0.25
			c0.21,0,0.38-0.18,0.38-0.39c0-0.04-0.01-0.08-0.02-0.12l-0.72-1.88c-0.08-0.2-0.3-0.3-0.5-0.22c-0.2,0.08-0.3,0.3-0.22,0.5
			L-34.98-160.25z M-32.94-160.2c0.2,0,0.37-0.15,0.38-0.35l0.13-1.62c0.02-0.21-0.14-0.4-0.35-0.41c0,0,0,0,0,0
			c-0.21-0.02-0.39,0.13-0.41,0.34c0,0,0,0.01,0,0.01l-0.13,1.63c-0.01,0.21,0.15,0.39,0.36,0.41
			C-32.96-160.2-32.95-160.2-32.94-160.2z"/>
		<path class="st0" d="M-5.7-147.01c-1.99-0.63-6.68-0.58-10.49-0.4c2.55-3.22,2.55-6.34,2.1-7.81c-0.35-1.1-0.88-3.87-0.2-4.95
			c0.13-0.22,0.35-0.37,0.6-0.39c0.9-0.12,1.06-1.05,1.19-1.8c0.03-0.27,0.09-0.53,0.18-0.79c0.15-0.28,0.37-0.51,0.62-0.7
			c0.72-0.57,1.27-1.31,1.62-2.16c0.81-2-0.28-2.98-0.32-3.02c-0.04-0.03-0.09-0.05-0.14-0.07h-0.07c-0.84-0.22-1.72-0.08-2.46,0.37
			c-0.35,0.17-0.78,0.37-1.41,0.64c-1.36,0.69-3.02,0.41-4.09-0.67c-2.3-2.21-3.92-2.85-10.26-2.85s-7.94,0.64-10.22,2.85
			c-1.07,1.09-2.72,1.36-4.09,0.67c-0.48-0.2-0.95-0.41-1.41-0.64c-0.73-0.46-1.62-0.59-2.46-0.37h-0.07
			c-0.05,0.01-0.1,0.03-0.14,0.07c-0.05,0.04-1.13,1.02-0.32,3.02c0.35,0.85,0.91,1.59,1.62,2.16c0.26,0.19,0.47,0.42,0.62,0.7
			c0.05,0.27,0.08,0.54,0.09,0.81c0.13,0.75,0.29,1.68,1.19,1.8c0.25,0.03,0.48,0.17,0.6,0.39c0.68,1.08,0.15,3.85-0.2,4.95
			c-0.46,1.47-0.44,4.6,2.1,7.81c-3.81-0.17-8.5-0.23-10.49,0.4c-0.2,0.06-0.31,0.28-0.25,0.48s0.28,0.31,0.48,0.25
			c2.09-0.66,7.66-0.51,10.82-0.34h0.13l0.33,0.35c-3.92,0.06-6.59,0.33-7.92,0.81c-0.2,0.07-0.31,0.28-0.24,0.48
			c0.07,0.2,0.28,0.31,0.48,0.24c0.01,0,0.01,0,0.02-0.01c1.32-0.48,4.24-0.74,8.46-0.77c0.18,0.15,0.36,0.3,0.55,0.45
			c-3.31,0.18-8.69,0.62-10.73,1.53c-0.19,0.1-0.26,0.33-0.16,0.52c0.09,0.17,0.29,0.24,0.46,0.18c2.13-0.94,8.27-1.35,11.35-1.51
			l0.51,0.37l0.05,0.04c-3.21,0.31-5.41,0.72-6.54,1.21c-0.19,0.1-0.26,0.33-0.16,0.52c0.09,0.17,0.29,0.24,0.46,0.18
			c1.06-0.46,3.3-0.86,6.5-1.16c-0.01,0.94,0.1,1.89,0.35,2.8c0.83,2.21,1.97,2.75,3.3,2.86c0.19,0.36,0.46,0.67,0.78,0.92
			c-0.71,0.65-1.3,1.42-1.73,2.28c-0.08,0.2,0.02,0.42,0.22,0.5c0.2,0.08,0.42-0.02,0.5-0.22c0.14-0.36,0.55-1.02,1.68-2.14
			c0.33,0.17,0.67,0.3,1.02,0.4c-0.25,0.56-0.41,1.15-0.47,1.75c-0.01,0.21,0.15,0.39,0.36,0.4c0,0,0,0,0,0
			c0.2,0,0.37-0.16,0.38-0.36c0.07-0.56,0.22-1.11,0.46-1.62c1.11,0.18,2.24,0.18,3.34,0c0.24,0.51,0.4,1.06,0.46,1.62
			c0.01,0.2,0.18,0.36,0.38,0.36c0.21-0.01,0.37-0.19,0.36-0.4c0,0,0,0,0,0c-0.06-0.61-0.21-1.2-0.45-1.76
			c0.35-0.1,0.7-0.23,1.02-0.4c1.13,1.12,1.53,1.78,1.68,2.14c0.08,0.2,0.3,0.3,0.5,0.22c0.2-0.08,0.3-0.3,0.22-0.5
			c-0.43-0.86-1.02-1.64-1.73-2.28c0.32-0.25,0.59-0.57,0.78-0.92c1.33-0.11,2.47-0.65,3.3-2.86c0.24-0.91,0.35-1.85,0.33-2.78
			c3.2,0.3,5.45,0.7,6.5,1.16c0.19,0.1,0.42,0.03,0.52-0.16c0.1-0.19,0.03-0.42-0.16-0.52c-0.02-0.01-0.04-0.02-0.05-0.02
			c-1.13-0.51-3.37-0.9-6.64-1.22l0.41-0.29l0.16-0.11c3.07,0.15,9.3,0.57,11.46,1.53c0.2,0.07,0.42-0.04,0.49-0.24
			c0.06-0.18-0.01-0.38-0.18-0.46c-2.07-0.91-7.47-1.34-10.77-1.53c0.19-0.15,0.38-0.3,0.57-0.45c4.23,0.03,7.15,0.29,8.48,0.77
			c0.2,0.07,0.42-0.04,0.48-0.24c0.06-0.19-0.03-0.4-0.22-0.48c-1.33-0.48-3.99-0.75-7.92-0.81l0.33-0.35h0.13
			c3.14-0.16,8.73-0.33,10.82,0.34c0.22,0.07,0.45-0.06,0.51-0.27C-5.36-146.71-5.48-146.94-5.7-147.01z M-27.16-137.35
			c-0.11-0.18-0.34-0.25-0.52-0.14c-0.18,0.11-0.25,0.34-0.14,0.52c0.08,0.14,0.2,0.36,0.33,0.61c-0.88,0.13-1.78,0.13-2.67,0
			c0.18-0.36,0.32-0.61,0.33-0.61c0.11-0.18,0.04-0.42-0.14-0.52c-0.18-0.11-0.42-0.04-0.52,0.14c0,0.03-0.21,0.37-0.44,0.85
			c-0.7-0.15-1.34-0.51-1.83-1.02h1.24c1.12,0,2.15-0.62,2.68-1.6c0.54,0.99,1.58,1.6,2.7,1.6h1.24c-0.49,0.52-1.13,0.87-1.83,1.02
			c-0.23-0.46-0.42-0.8-0.44-0.83L-27.16-137.35z M-18.42-146.16l-0.04,0.03c-0.43,0.36-0.9,0.71-1.37,1.02h-0.4
			c0.07-0.87,0.23-1.66,0.55-1.9c0.17-0.13,0.2-0.38,0.07-0.55c-0.13-0.17-0.38-0.2-0.55-0.07c-0.51,0.42-0.74,1.35-0.83,2.47h-0.31
			c-0.21-0.01-0.38,0.15-0.39,0.35c0,0.01,0,0.01,0,0.02c-0.01,0.21,0.16,0.39,0.37,0.39c0,0,0,0,0,0h0.29v0.38h-0.09
			c-0.21-0.01-0.39,0.14-0.41,0.35c-0.02,0.21,0.14,0.39,0.35,0.41h0.11c0.01,0.87-0.08,1.74-0.29,2.58
			c-0.72,1.92-1.58,2.32-2.84,2.38h-1.93c-1.26,0-2.29-1.02-2.31-2.28c0.18-0.17,0.38-0.31,0.59-0.43c0.51-0.33,1.26-0.78,0.99-1.43
			c-0.1-0.22-0.03-0.33,0.85-0.93l0.32-0.22c0.38-0.2,0.63-0.59,0.66-1.02c-0.02-0.33-0.2-0.64-0.49-0.82
			c-0.17-0.11-0.4-0.06-0.51,0.11c-0.1,0.17-0.05,0.39,0.11,0.51c0.04,0.03,0.13,0.12,0.14,0.19c0.01,0.07-0.09,0.21-0.34,0.38
			l-0.32,0.22c-0.83,0.56-1.49,1.02-1.12,1.82c-0.04,0.13-0.45,0.38-0.68,0.51c-0.2,0.12-0.39,0.25-0.58,0.39
			c-0.18-0.14-0.38-0.28-0.58-0.39c-0.24-0.13-0.47-0.29-0.68-0.48c0.36-0.85-0.3-1.3-1.12-1.86l-0.32-0.22
			c-0.25-0.17-0.34-0.31-0.34-0.38s0.09-0.16,0.13-0.19c0.17-0.12,0.21-0.36,0.09-0.53c-0.11-0.16-0.33-0.21-0.5-0.11
			c-0.28,0.18-0.46,0.48-0.49,0.82c0.03,0.43,0.28,0.82,0.66,1.02l0.32,0.22c0.88,0.6,0.95,0.71,0.85,0.93
			c-0.28,0.65,0.45,1.1,0.99,1.43c0.21,0.12,0.4,0.25,0.59,0.39c-0.01,1.28-1.04,2.31-2.32,2.31h-0.8c-1.9,0.05-3.07,0.07-3.98-2.38
			c-0.2-0.84-0.3-1.71-0.29-2.58h0.11c0.21-0.02,0.37-0.2,0.35-0.42c-0.02-0.21-0.2-0.37-0.42-0.35h-0.07v-0.38h0.29
			c0.21,0,0.38-0.17,0.38-0.38s-0.17-0.38-0.38-0.38h-0.31c-0.1-1.12-0.3-2.04-0.83-2.47c-0.18-0.15-0.44-0.12-0.59,0.06
			c-0.15,0.18-0.12,0.44,0.06,0.59c0.32,0.25,0.46,1.02,0.54,1.9h-0.49c-0.43-0.33-0.87-0.67-1.27-1.02
			c-0.02-0.03-0.05-0.05-0.08-0.07c-0.13-0.12-0.27-0.24-0.39-0.35l1.19,0.08h0.03c0.21,0.01,0.39-0.16,0.4-0.37
			c0.01-0.21-0.16-0.39-0.37-0.4c0,0-0.8-0.06-2.04-0.13c-2.78-3.16-2.85-6.23-2.41-7.62c0-0.04,1.19-3.89,0.12-5.58
			c-0.25-0.4-0.66-0.67-1.12-0.73c-0.32-0.04-0.42-0.51-0.51-1.17c-0.04-0.32-0.12-0.64-0.22-0.94c-0.19-0.39-0.48-0.74-0.83-1
			c-0.63-0.49-1.12-1.14-1.42-1.88c-0.51-1.21-0.12-1.87,0.05-2.08c0.37-0.03,0.75,0.06,1.06,0.28c0.04,0.03,3.84,2.82,5.51,2.82
			h0.18c-1.53,1.1-2.43,2.5-2.43,3.88c0,0.21,0.17,0.38,0.38,0.38s0.38-0.17,0.38-0.38c0-1.44,1.33-3.01,3.39-4.02
			c0.8-0.12,1.58-0.38,2.29-0.76c0.19-0.1,0.26-0.33,0.16-0.52c-0.1-0.19-0.33-0.26-0.52-0.16c0,0-0.01,0.01-0.01,0.01
			c-1.2,0.59-2.53,0.87-3.86,0.81c-0.64,0-1.86-0.62-2.99-1.3c1.61,0.73,3.51,0.37,4.75-0.88c2.04-1.95,3.32-2.63,9.71-2.63
			s7.66,0.68,9.71,2.63c0.78,0.79,1.84,1.24,2.95,1.25c0.6-0.01,1.2-0.13,1.76-0.35c-1.13,0.68-2.35,1.29-2.98,1.29
			c-1.34,0.06-2.66-0.22-3.86-0.81c-0.19-0.1-0.42-0.03-0.52,0.16c-0.1,0.18-0.03,0.41,0.15,0.51c0.72,0.39,1.5,0.65,2.3,0.77
			c2.04,1.02,3.39,2.55,3.39,4.02c0,0.21,0.17,0.38,0.38,0.38c0.21,0,0.38-0.17,0.38-0.38c0-1.38-0.9-2.78-2.43-3.88h0.22
			c1.67,0,5.48-2.79,5.51-2.82c0.31-0.21,0.68-0.31,1.05-0.28c0.17,0.22,0.54,0.88,0.05,2.08c-0.3,0.74-0.79,1.38-1.42,1.88
			c-0.35,0.26-0.64,0.6-0.83,1c-0.11,0.31-0.18,0.62-0.22,0.94c-0.12,0.68-0.21,1.13-0.51,1.17c-0.48,0.06-0.9,0.33-1.15,0.74
			c-1.08,1.69,0.1,5.55,0.12,5.58c0.44,1.39,0.37,4.47-2.41,7.62c-1.22,0.07-2.04,0.13-2.04,0.13c-0.21,0.01-0.38,0.19-0.37,0.4
			c0.01,0.21,0.19,0.38,0.4,0.37h0.03l1.19-0.08C-18.12-146.41-18.28-146.29-18.42-146.16z"/>
		<path class="st0" d="M-21.3-159c0.12,0,0.22-0.05,0.3-0.14l1.63-2c0.14-0.16,0.12-0.4-0.04-0.54c-0.16-0.14-0.4-0.12-0.54,0.04
			c0,0.01-0.01,0.01-0.01,0.02l-1.63,2c-0.13,0.16-0.11,0.41,0.06,0.54C-21.47-159.04-21.39-159.01-21.3-159L-21.3-159z
			 M-23.2-160.03c0.05,0.01,0.09,0.01,0.14,0c0.16,0,0.3-0.1,0.36-0.25l0.72-1.88c0.08-0.2-0.02-0.42-0.22-0.5
			c-0.2-0.08-0.42,0.02-0.5,0.22l-0.72,1.88c-0.09,0.19,0,0.42,0.19,0.51C-23.22-160.04-23.21-160.04-23.2-160.03z M-24.76-160.19
			c0.21-0.02,0.37-0.2,0.35-0.41c0,0,0,0,0,0l-0.13-1.63c-0.02-0.21-0.2-0.37-0.41-0.35c-0.21,0.02-0.37,0.2-0.35,0.41l0.13,1.63
			C-25.16-160.33-24.98-160.17-24.76-160.19C-24.77-160.19-24.76-160.19-24.76-160.19z"/>
		<circle class="st0" cx="-34.92" cy="-142.49" r="0.54"/>
		<circle class="st0" cx="-34.74" cy="-140.67" r="0.54"/>
		<circle class="st0" cx="-33.34" cy="-139.47" r="0.54"/>
		<circle class="st0" cx="-32.87" cy="-141.33" r="0.54"/>
		<circle class="st0" cx="-31.38" cy="-140.39" r="0.54"/>
		<circle class="st0" cx="-22.79" cy="-142.49" r="0.54"/>
		<circle class="st0" cx="-22.97" cy="-140.67" r="0.54"/>
		<circle class="st0" cx="-24.37" cy="-139.47" r="0.54"/>
		<circle class="st0" cx="-24.84" cy="-141.33" r="0.54"/>
		<circle class="st0" cx="-26.33" cy="-140.39" r="0.54"/>
		<path class="st0" d="M-27.03-151.35c-0.21-0.02-0.4,0.14-0.41,0.35c0,0,0,0,0,0c-0.14,1.05-0.64,2.02-1.41,2.75
			c-0.76-0.74-1.26-1.71-1.39-2.76c-0.02-0.21-0.2-0.37-0.41-0.35c-0.21,0.02-0.37,0.2-0.35,0.41c0.19,1.36,0.86,2.61,1.91,3.51
			c0.07,0.06,0.15,0.09,0.24,0.09c0.09,0,0.17-0.03,0.24-0.09c1.04-0.9,1.72-2.14,1.91-3.51C-26.7-151.14-26.84-151.31-27.03-151.35
			z M-33.77-149.97c-0.18-0.1-0.4-0.04-0.51,0.14c-0.1,0.18-0.24,0.37-0.37,0.57c-0.68,0.99-1.72,2.49-0.26,4.09
			c0.16,0.14,0.4,0.12,0.54-0.05c0.11-0.13,0.12-0.32,0.02-0.46c-0.97-1.05-0.48-1.95,0.33-3.12c0.15-0.22,0.29-0.42,0.4-0.62
			c0.11-0.18,0.06-0.42-0.12-0.53C-33.75-149.96-33.76-149.97-33.77-149.97z M-23.39-149.83c-0.11-0.18-0.34-0.25-0.52-0.14
			c-0.18,0.11-0.25,0.34-0.14,0.52c0.11,0.19,0.26,0.4,0.4,0.62c0.8,1.16,1.29,2.07,0.33,3.12c-0.16,0.14-0.18,0.38-0.05,0.54
			c0.14,0.16,0.38,0.18,0.54,0.05c0.03-0.02,0.05-0.05,0.07-0.08c1.46-1.58,0.42-3.07-0.26-4.09
			C-23.15-149.47-23.28-149.65-23.39-149.83z M-33-144.96c0.06-0.2-0.05-0.42-0.25-0.48c-0.2-0.06-0.42,0.05-0.48,0.25
			c-0.29,0.95,0.11,1.97,0.98,2.46c0.18,0.11,0.42,0.04,0.52-0.14c0.11-0.18,0.04-0.42-0.14-0.52
			C-32.92-143.71-33.18-144.36-33-144.96z M-24.96-142.75c0.86-0.49,1.27-1.51,0.98-2.46c-0.06-0.2-0.28-0.31-0.48-0.25
			c-0.2,0.06-0.31,0.28-0.25,0.48l0,0c0.18,0.6-0.08,1.24-0.63,1.55c-0.18,0.11-0.25,0.34-0.14,0.52s0.34,0.25,0.52,0.14V-142.75z
			 M-27.38-144.89c-0.71,0.81-1.95,0.9-2.76,0.19c-0.07-0.06-0.13-0.12-0.19-0.19c-0.14-0.16-0.39-0.18-0.55-0.04
			c-0.16,0.14-0.18,0.39-0.04,0.55c0.98,1.14,2.69,1.27,3.83,0.3c0.11-0.09,0.2-0.19,0.3-0.3c0.14-0.16,0.12-0.41-0.04-0.55
			S-27.24-145.05-27.38-144.89L-27.38-144.89L-27.38-144.89z M-38.81-152.36c-0.18-0.12-0.41-0.07-0.53,0.11
			c-0.12,0.18-0.07,0.41,0.11,0.53c0.02,0.01,0.04,0.02,0.06,0.03c1.34,0.74,1.93,1.83,1.93,2.23c0,0.21,0.17,0.38,0.38,0.38
			c0.21,0,0.38-0.17,0.38-0.38C-36.48-150.26-37.35-151.56-38.81-152.36z M-18.33-152.21c-0.1-0.18-0.33-0.25-0.51-0.15
			c-1.47,0.8-2.35,2.11-2.35,2.9c0,0.21,0.17,0.38,0.38,0.38c0.21,0,0.38-0.17,0.38-0.38c0-0.39,0.58-1.49,1.93-2.23
			C-18.31-151.78-18.23-152.02-18.33-152.21C-18.33-152.21-18.33-152.21-18.33-152.21z"/>
	</g>
	<g id="_x35_afeb38c-54b7-45cf-8e8f-6e00f7dcb161">
		<path d="M42.39,28.74L42.1,28h-1.12l-0.29,0.73H40.5l0.94-2.34h0.21l0.94,2.34H42.39z M41.04,27.84h0.99l-0.41-1.02l-0.09-0.25h0
			l-0.09,0.24L41.04,27.84z M45.63,27.59h0.96v1.15h-0.14l-0.01-0.41l0,0c-0.06,0.14-0.16,0.25-0.3,0.33l0,0l0,0
			c-0.14,0.08-0.31,0.11-0.51,0.11l0,0l0,0c-0.21,0-0.4-0.05-0.56-0.15l0,0l0,0c-0.16-0.1-0.28-0.24-0.37-0.42l0,0l0,0
			c-0.09-0.18-0.13-0.4-0.13-0.64l0,0l0,0c0-0.24,0.04-0.46,0.13-0.64l0,0l0,0c0.09-0.18,0.21-0.32,0.37-0.42l0,0l0,0
			c0.16-0.1,0.35-0.15,0.56-0.15l0,0l0,0c0.24,0,0.43,0.05,0.59,0.14l0,0l0,0c0.15,0.09,0.27,0.24,0.34,0.43l0,0l-0.16,0.08l0,0
			c-0.05-0.16-0.15-0.29-0.27-0.37l0,0l0,0c-0.13-0.08-0.29-0.13-0.49-0.13l0,0l0,0c-0.17,0-0.33,0.04-0.46,0.13l0,0l0,0
			c-0.13,0.08-0.23,0.21-0.31,0.36l0,0l0,0c-0.07,0.16-0.11,0.34-0.11,0.55l0,0l0,0c0,0.32,0.08,0.58,0.23,0.77l0,0l0,0
			c0.16,0.19,0.37,0.28,0.64,0.28l0,0l0,0c0.17,0,0.32-0.03,0.43-0.1l0,0l0,0c0.12-0.07,0.21-0.16,0.26-0.27l0,0l0,0
			c0.06-0.11,0.09-0.23,0.09-0.35l0,0v-0.13h-0.8V27.59z M49.17,28.58h1.48v0.16h-1.65V26.4h1.6v0.16h-1.42v0.9h1.12v0.17h-1.12
			V28.58z M54.74,26.4v2.34h-0.22l-1.24-1.84l-0.17-0.31H53.1l0.01,0.29v1.85h-0.17V26.4h0.23l1.24,1.83l0.18,0.31l-0.01-0.29V26.4
			H54.74z M59.1,28.15L59.1,28.15c-0.07,0.2-0.18,0.35-0.34,0.46l0,0l0,0c-0.17,0.11-0.36,0.16-0.59,0.16l0,0l0,0
			c-0.21,0-0.4-0.05-0.56-0.15l0,0l0,0c-0.16-0.1-0.28-0.24-0.37-0.42l0,0l0,0c-0.09-0.18-0.13-0.4-0.13-0.64l0,0l0,0
			c0-0.24,0.04-0.46,0.13-0.64l0,0l0,0c0.09-0.18,0.21-0.32,0.37-0.42l0,0l0,0c0.16-0.1,0.35-0.15,0.56-0.15l0,0l0,0
			c0.47,0,0.77,0.19,0.91,0.58l0,0l-0.17,0.08l0,0c-0.05-0.17-0.14-0.29-0.26-0.37l0,0l0,0c-0.12-0.08-0.27-0.12-0.46-0.12l0,0l0,0
			c-0.17,0-0.33,0.04-0.46,0.13l0,0l0,0c-0.13,0.08-0.24,0.21-0.31,0.36l0,0l0,0c-0.07,0.16-0.11,0.34-0.11,0.55l0,0l0,0
			c0,0.21,0.04,0.4,0.11,0.55l0,0l0,0c0.07,0.16,0.17,0.28,0.3,0.36l0,0l0,0c0.13,0.08,0.29,0.13,0.46,0.13l0,0l0,0
			c0.19,0,0.35-0.05,0.48-0.14l0,0l0,0c0.13-0.09,0.22-0.22,0.28-0.39l0,0L59.1,28.15z M61.57,28.58h1.48v0.16H61.4V26.4h1.6v0.16
			h-1.42v0.9h1.13v0.17h-1.13V28.58z M68.96,26.4L68.96,26.4c0.37,0,0.66,0.1,0.86,0.3l0,0l0,0c0.2,0.2,0.3,0.48,0.3,0.86l0,0l0,0
			c0,0.38-0.1,0.68-0.3,0.88l0,0l0,0c-0.2,0.2-0.49,0.31-0.86,0.31l0,0h-0.74V26.4H68.96z M68.98,28.58L68.98,28.58
			c0.31,0,0.55-0.09,0.72-0.27l0,0l0,0c0.17-0.18,0.25-0.43,0.25-0.76l0,0l0,0c0-0.32-0.08-0.56-0.25-0.73l0,0l0,0
			c-0.17-0.17-0.4-0.26-0.72-0.26l0,0H68.4v2.02H68.98z M72.67,28.58h1.48v0.16H72.5V26.4h1.6v0.16h-1.42v0.9h1.12v0.17h-1.12V28.58
			z M80.48,27.1l-0.47,1.64h-0.22l-0.73-2.34h0.19l0.65,2.2l0.61-2.2h0.21l0.61,2.2l0.66-2.2h0.18l-0.73,2.34h-0.22l-0.47-1.64
			l-0.13-0.51h-0.01L80.48,27.1z M84.6,28.58h1.48v0.16h-1.66V26.4h1.6v0.16H84.6v0.9h1.13v0.17H84.6V28.58z M88.37,28.74V26.4h0.83
			l0,0c0.26,0,0.45,0.05,0.58,0.16l0,0l0,0c0.12,0.11,0.19,0.26,0.19,0.46l0,0l0,0c0,0.14-0.04,0.25-0.11,0.35l0,0l0,0
			c-0.07,0.09-0.18,0.16-0.32,0.18l0,0v0l0,0c0.15,0.02,0.27,0.09,0.36,0.18l0,0l0,0c0.09,0.1,0.13,0.22,0.13,0.37l0,0l0,0
			c0,0.2-0.07,0.36-0.22,0.47l0,0l0,0c-0.14,0.11-0.35,0.16-0.61,0.16l0,0H88.37z M88.54,27.48h0.65l0,0c0.38,0,0.57-0.15,0.57-0.46
			l0,0l0,0c0-0.31-0.19-0.46-0.57-0.46l0,0h-0.65V27.48z M88.54,28.58h0.68l0,0c0.2,0,0.35-0.04,0.45-0.12l0,0l0,0
			c0.1-0.08,0.15-0.2,0.15-0.35l0,0l0,0c0-0.15-0.05-0.27-0.15-0.35l0,0l0,0c-0.1-0.08-0.25-0.12-0.45-0.12l0,0h-0.68V28.58z
			 M96,26.4L96,26.4c0.38,0,0.66,0.1,0.86,0.3l0,0l0,0c0.2,0.2,0.3,0.48,0.3,0.86l0,0l0,0c0,0.38-0.1,0.68-0.3,0.88l0,0l0,0
			c-0.2,0.2-0.49,0.31-0.86,0.31l0,0h-0.74V26.4H96z M96.02,28.58L96.02,28.58c0.31,0,0.55-0.09,0.72-0.27l0,0l0,0
			c0.17-0.18,0.25-0.43,0.25-0.76l0,0l0,0c0-0.32-0.08-0.56-0.25-0.73l0,0l0,0c-0.17-0.17-0.41-0.26-0.72-0.26l0,0h-0.58v2.02H96.02
			z M99.72,28.58h1.48v0.16h-1.66V26.4h1.6v0.16h-1.42v0.9h1.13v0.17h-1.13V28.58z M104.21,26.36L104.21,26.36
			c0.44,0,0.74,0.17,0.88,0.52l0,0L104.94,27l0,0c-0.06-0.17-0.15-0.29-0.27-0.36l0,0l0,0c-0.12-0.08-0.27-0.11-0.46-0.11l0,0l0,0
			c-0.14,0-0.26,0.02-0.36,0.07l0,0l0,0c-0.1,0.04-0.18,0.1-0.23,0.17l0,0l0,0c-0.05,0.07-0.08,0.16-0.08,0.25l0,0l0,0
			c0,0.09,0.02,0.16,0.07,0.22l0,0l0,0c0.04,0.06,0.12,0.11,0.23,0.15l0,0l0,0c0.11,0.04,0.26,0.08,0.45,0.11l0,0l0,0
			c0.3,0.05,0.52,0.13,0.65,0.23l0,0l0,0c0.13,0.1,0.19,0.23,0.19,0.41l0,0l0,0c0,0.13-0.04,0.24-0.11,0.33l0,0l0,0
			c-0.07,0.1-0.18,0.17-0.31,0.22l0,0l0,0c-0.14,0.05-0.29,0.08-0.46,0.08l0,0l0,0c-0.24,0-0.45-0.05-0.62-0.15l0,0l0,0
			c-0.17-0.1-0.29-0.24-0.35-0.41l0,0l0.16-0.12l0,0c0.05,0.17,0.14,0.3,0.28,0.39l0,0l0,0c0.14,0.09,0.32,0.13,0.53,0.13l0,0l0,0
			c0.2,0,0.37-0.04,0.5-0.12l0,0l0,0c0.13-0.08,0.2-0.2,0.2-0.34l0,0l0,0c0-0.13-0.05-0.22-0.16-0.3l0,0l0,0
			c-0.1-0.07-0.29-0.13-0.55-0.18l0,0l0,0c-0.22-0.04-0.39-0.09-0.52-0.14l0,0l0,0c-0.13-0.05-0.22-0.12-0.27-0.2l0,0l0,0
			c-0.06-0.08-0.08-0.18-0.08-0.3l0,0l0,0c0-0.12,0.03-0.23,0.1-0.33l0,0l0,0c0.07-0.1,0.17-0.18,0.3-0.24l0,0l0,0
			C103.88,26.39,104.03,26.36,104.21,26.36L104.21,26.36z M107.63,26.4v2.34h-0.18V26.4H107.63z M111.04,27.59H112v1.15h-0.14
			l-0.01-0.41l0,0c-0.06,0.14-0.16,0.25-0.3,0.33l0,0l0,0c-0.14,0.08-0.3,0.11-0.5,0.11l0,0l0,0c-0.21,0-0.4-0.05-0.56-0.15l0,0l0,0
			c-0.16-0.1-0.28-0.24-0.37-0.42l0,0l0,0c-0.09-0.18-0.13-0.4-0.13-0.64l0,0l0,0c0-0.24,0.04-0.46,0.13-0.64l0,0l0,0
			c0.09-0.18,0.21-0.32,0.38-0.42l0,0l0,0c0.16-0.1,0.35-0.15,0.56-0.15l0,0l0,0c0.24,0,0.43,0.05,0.59,0.14l0,0l0,0
			c0.15,0.09,0.27,0.24,0.34,0.43l0,0l-0.16,0.08l0,0c-0.05-0.16-0.15-0.29-0.27-0.37l0,0l0,0c-0.13-0.08-0.29-0.13-0.49-0.13l0,0
			l0,0c-0.18,0-0.33,0.04-0.46,0.13l0,0l0,0c-0.13,0.08-0.23,0.21-0.31,0.36l0,0l0,0c-0.07,0.16-0.11,0.34-0.11,0.55l0,0l0,0
			c0,0.32,0.08,0.58,0.23,0.77l0,0l0,0c0.15,0.19,0.37,0.28,0.64,0.28l0,0l0,0c0.17,0,0.31-0.03,0.43-0.1l0,0l0,0
			c0.12-0.07,0.21-0.16,0.26-0.27l0,0l0,0c0.06-0.11,0.09-0.23,0.09-0.35l0,0v-0.13h-0.8V27.59z M116.2,26.4v2.34h-0.22l-1.24-1.84
			l-0.17-0.31h-0.01l0.01,0.29v1.85h-0.17V26.4h0.22l1.24,1.83l0.18,0.31l-0.01-0.29V26.4H116.2z"/>
	</g>
</g>
</svg>
